<svg version="1.1" id="Layer_1" xmlns="http://www.w3.org/2000/svg" xmlns:xlink="http://www.w3.org/1999/xlink" x="0px" y="0px"
	 width="100%" viewBox="0 0 360 360" enable-background="new 0 0 360 360" xml:space="preserve">
<path fill="#000000" opacity="1.000000" stroke="none" 
	d="
M195.000000,361.000000 
	C130.022400,361.000000 65.544792,361.000000 1.033591,361.000000 
	C1.033591,241.064072 1.033591,121.128120 1.033591,1.096087 
	C120.894211,1.096087 240.788513,1.096087 360.841431,1.096087 
	C360.841431,120.999832 360.841431,240.999893 360.841431,361.000000 
	C305.794891,361.000000 250.647446,361.000000 195.000000,361.000000 
M162.532394,67.210091 
	C162.199341,67.390083 162.049713,67.668625 161.587158,68.168617 
	C161.422638,68.213203 161.258118,68.257790 160.474030,68.118126 
	C159.981216,68.421822 159.488403,68.725517 158.363220,69.139206 
	C157.937973,69.186028 157.512741,69.232857 156.296509,69.057236 
	C144.142242,71.038368 134.023514,77.361206 125.313118,85.406265 
	C106.291809,102.974670 97.593506,125.041077 99.365433,151.784790 
	C100.718231,162.593857 103.387833,173.091415 109.263702,182.306961 
	C112.861931,187.950302 117.704887,192.800003 121.999298,198.000610 
	C121.999298,198.000610 121.993080,198.010422 122.114136,198.519470 
	C122.407120,198.683792 122.700104,198.848129 123.000305,199.000000 
	C123.000305,199.000000 122.989227,199.008652 123.205887,199.645813 
	C136.648270,213.945969 153.724335,220.584167 172.803223,221.896255 
	C191.308517,223.168900 208.246140,217.750336 223.260132,206.840179 
	C232.959351,199.792130 241.076141,191.264801 246.639771,179.721680 
	C250.246521,171.841370 254.205078,164.066528 254.489517,154.815582 
	C254.580017,154.503281 254.670517,154.190979 254.904404,153.020538 
	C254.936920,147.215256 255.473465,141.353989 254.837158,135.622971 
	C254.356949,131.297821 252.376236,127.139267 250.970688,122.162399 
	C250.067429,117.390038 247.114578,115.501793 242.399078,116.000099 
	C240.952850,116.152931 239.488815,116.137497 237.325089,116.352097 
	C236.959747,117.696259 235.924026,119.304138 236.332977,120.343727 
	C240.339783,130.529419 242.330383,141.013733 239.874527,151.762787 
	C238.102005,159.521011 236.399734,167.691940 232.543594,174.471542 
	C228.251724,182.017258 221.554123,188.194626 215.205246,195.051361 
	C214.636932,195.373901 214.032867,195.646729 213.505493,196.026169 
	C197.704330,207.394836 179.912521,209.391220 161.587692,205.548279 
	C148.595657,202.823730 137.735016,195.421417 128.882217,185.359207 
	C115.624405,170.290176 111.832603,152.395782 114.634041,133.180450 
	C115.740517,125.591034 119.538971,118.394081 122.696945,110.703087 
	C127.509117,105.121902 131.762299,98.888298 137.294907,94.147980 
	C142.544937,89.649780 149.134567,86.715088 155.770599,82.733788 
	C157.831100,82.102699 159.891602,81.471611 162.848068,80.985092 
	C166.284424,80.647659 169.713760,80.152534 173.158310,79.999710 
	C189.273254,79.284698 203.689850,83.919479 216.418243,93.865364 
	C218.475098,95.472580 220.768814,97.444481 223.933792,94.000961 
	C225.940170,93.946671 227.946564,93.892387 230.728394,94.004631 
	C231.777679,93.864845 232.826965,93.725060 234.887894,93.450500 
	C232.817505,90.567650 231.504456,88.091248 229.606079,86.203423 
	C218.969437,75.625893 205.867203,69.401291 191.284897,67.219917 
	C182.655685,65.929062 173.676956,66.974609 164.406219,67.033684 
	C164.406219,67.033684 163.975159,67.175331 163.501373,67.100601 
	C163.501373,67.100601 163.031403,67.194901 162.532394,67.210091 
M220.999619,273.999115 
	C220.999619,273.999115 220.927124,274.001953 221.080170,274.532898 
	C221.385803,274.719055 221.691437,274.905212 221.984970,275.025177 
	C221.984970,275.025177 221.921066,275.046265 222.262207,275.659698 
	C223.178955,275.787598 224.095703,275.915497 225.447571,276.696106 
	C230.291718,276.965515 235.283554,278.105408 239.947693,277.313965 
	C248.342438,275.889465 254.562927,268.885620 253.962448,256.114166 
	C253.184235,239.562866 246.775665,234.496765 231.893982,235.206497 
	C226.179916,235.478989 219.562531,235.726654 216.454239,243.213547 
	C216.372513,243.814255 216.290802,244.414963 216.098618,245.484177 
	C216.098618,245.484177 215.992676,245.953720 215.471802,246.098282 
	C215.373764,246.414780 215.275742,246.731277 215.055511,247.449142 
	C215.055511,247.449142 214.989944,247.863541 214.297714,248.332016 
	C214.104782,250.798203 213.675308,253.273071 213.765366,255.728867 
	C213.992035,261.908966 213.280548,268.459442 219.541168,272.969452 
	C219.541168,272.969452 219.869522,273.003387 220.094513,273.503571 
	C220.397217,273.692902 220.699921,273.882263 220.999619,273.999115 
M157.097244,246.520981 
	C157.396835,246.706329 157.696426,246.891663 157.977768,247.015717 
	C157.977768,247.015717 157.947601,247.072098 158.385529,247.755051 
	C159.478531,247.755051 160.571533,247.755051 161.981110,247.755051 
	C161.981110,244.825714 162.290543,242.023117 161.840378,239.348358 
	C161.638916,238.151245 159.913986,237.210495 158.548523,236.031616 
	C158.548523,236.031616 158.196167,236.002502 157.723648,235.334564 
	C152.669113,233.605850 147.658371,232.879639 142.090637,235.986969 
	C137.644058,237.562775 134.467239,240.398102 134.065140,245.289764 
	C133.610397,250.821793 133.830215,256.271210 140.363312,259.728699 
	C144.305206,260.966125 148.247101,262.203522 152.302261,263.476501 
	C149.654602,268.532562 148.501953,268.420349 135.485336,262.583160 
	C132.893326,267.793640 133.420532,272.402802 137.291214,275.684204 
	C139.866364,276.398163 142.441498,277.112152 145.915237,277.940857 
	C148.053406,277.953308 150.195862,278.058807 152.328934,277.960541 
	C158.360626,277.682617 162.073486,274.917969 163.055298,270.113251 
	C163.055298,270.113251 163.063644,270.077393 163.738754,269.675812 
	C167.143326,262.576538 163.690613,254.583008 155.589111,251.283310 
	C152.112732,250.611755 147.531952,251.768112 147.872940,246.033157 
	C149.236160,245.939804 150.599365,245.846436 152.484253,245.838501 
	C152.658936,245.815552 152.833633,245.792603 153.794708,245.943359 
	C154.868271,245.983322 155.941818,246.023285 157.004837,245.992523 
	C157.004837,245.992523 156.934082,246.002945 157.097244,246.520981 
M96.039352,268.065796 
	C96.039352,268.065796 95.997322,268.185638 95.095291,268.072662 
	C91.085037,267.680450 87.074783,267.288239 82.973083,266.177185 
	C82.657799,264.799133 82.342514,263.421112 82.645813,261.922119 
	C83.061722,261.867676 83.477623,261.813232 84.820305,261.929535 
	C87.306870,261.952454 89.799477,261.873779 92.278641,262.021149 
	C96.385429,262.265289 98.624321,260.824066 98.015297,256.331207 
	C97.798561,254.732239 97.822487,253.100647 97.720665,251.185059 
	C93.276436,251.185059 89.124733,251.185059 84.224739,251.007584 
	C83.363029,249.653275 82.501320,248.298965 81.524361,246.763504 
	C84.850204,246.021820 87.024490,245.536942 90.038727,245.043533 
	C91.691628,245.073395 93.436172,244.777649 94.975525,245.210938 
	C97.179710,245.831345 99.814339,246.786789 99.745010,243.533401 
	C99.677399,240.360611 102.725334,235.760208 96.034935,234.006027 
	C90.360405,234.059387 84.685883,234.112747 78.182579,234.036972 
	C76.789108,234.080109 75.395630,234.123230 73.401993,234.054077 
	C72.997658,234.086105 72.593315,234.118134 71.364204,234.285278 
	C70.911972,235.624161 70.078995,236.959641 70.067078,238.302444 
	C69.961342,250.212555 69.975632,262.124115 70.042137,274.034760 
	C70.047966,275.078613 70.677956,276.118988 71.498756,277.758057 
	C74.034401,277.699951 76.571053,277.565643 79.105499,277.598907 
	C85.170700,277.678467 91.235344,277.912872 97.298882,277.874512 
	C98.125061,277.869293 98.943619,276.660400 99.903503,275.183990 
	C99.223923,272.926636 98.544342,270.669250 97.332405,268.233154 
	C97.150375,268.189575 96.968338,268.145966 96.796478,267.683777 
	C96.585609,267.819458 96.374748,267.955139 96.039352,268.065796 
M172.067535,235.747910 
	C172.036804,236.868881 172.006088,237.989853 171.989792,240.034149 
	C171.964676,250.661545 171.939575,261.288940 171.358047,272.228058 
	C172.271927,274.137604 172.891449,277.404144 174.159836,277.679260 
	C176.956223,278.285858 180.079788,277.384003 183.733978,276.547455 
	C183.824905,271.744720 183.915848,266.941986 184.926300,262.036163 
	C188.175980,262.036163 191.425674,262.036163 195.164764,262.036163 
	C195.164764,265.093933 195.164764,267.545837 195.030762,270.869324 
	C194.975510,278.665009 197.381073,279.870239 207.948196,277.150421 
	C207.948196,266.268738 207.961670,255.320877 207.939331,244.373077 
	C207.933243,241.394119 208.779541,237.803314 207.410767,235.655823 
	C206.526047,234.267761 202.205566,235.411163 199.639740,234.672882 
	C195.802139,233.568649 194.896683,235.229233 194.988602,238.488541 
	C195.040070,240.313034 195.120331,242.136703 195.049026,244.756943 
	C195.107620,245.820908 195.166214,246.884888 195.047379,248.752014 
	C192.806549,253.041229 188.929794,250.461670 185.833191,250.607712 
	C185.302170,250.632767 184.277359,247.181900 184.060120,245.270859 
	C183.711029,242.200104 183.845169,239.074402 183.566772,235.220947 
	C179.884857,233.832687 176.201065,232.408340 172.868423,235.761292 
	C172.868423,235.761292 172.769852,235.730347 172.067535,235.747910 
M138.940491,138.231689 
	C138.986862,136.181366 139.033218,134.131058 140.004425,132.007462 
	C155.357376,131.988800 170.710922,131.906403 186.062454,132.045013 
	C187.690506,132.059708 189.306839,133.370316 190.665115,134.794296 
	C189.783310,137.249603 188.901505,139.704910 187.088028,142.028900 
	C175.983475,142.012756 164.877899,142.077606 153.774963,141.934921 
	C150.069717,141.887314 149.072525,144.355759 150.149582,146.688705 
	C151.681702,150.007355 148.506119,156.165314 154.754211,156.533463 
	C162.115891,156.967194 169.543045,156.289703 177.455582,156.776001 
	C183.175659,156.513306 188.893463,156.118378 194.616364,156.020920 
	C201.993134,155.895294 202.257523,156.038910 203.348938,149.056137 
	C204.227219,143.437103 204.369858,137.703094 204.968597,131.120071 
	C205.256149,127.423225 205.543686,123.726387 205.954620,119.245468 
	C204.788635,118.183311 203.612732,116.194633 202.458267,116.207001 
	C193.962448,116.298012 185.470917,116.788818 176.087738,117.027428 
	C159.395416,117.083527 142.703079,117.139618 125.222954,117.070686 
	C121.238403,117.186584 121.907539,120.028671 122.200760,122.455894 
	C122.708878,126.662003 123.217598,130.883423 124.069565,135.027786 
	C124.767197,138.421341 125.964729,141.712112 126.989685,145.875137 
	C127.043571,147.257782 127.097458,148.640411 126.993446,150.927704 
	C128.040344,159.947495 129.087234,168.967300 130.041611,178.630722 
	C130.697830,179.371048 131.354034,180.111389 132.749527,181.284836 
	C134.338196,181.518311 135.932632,181.985718 137.514557,181.946640 
	C146.582214,181.722580 155.646255,181.168549 164.712799,181.140091 
	C172.169403,181.116684 179.625641,181.762344 187.086121,181.933701 
	C192.375916,182.055191 197.672531,181.880371 203.780426,181.981201 
	C209.416367,181.654770 215.067368,181.475555 220.678040,180.901901 
	C222.142487,180.752167 224.526169,179.556595 224.705078,178.530533 
	C225.717575,172.724106 226.187927,166.823151 226.980972,160.122910 
	C228.644226,145.774170 230.501968,131.443542 231.840729,117.064583 
	C232.197464,113.233009 233.146622,111.648811 237.090485,111.877327 
	C241.569580,112.136856 246.077484,112.088539 250.565613,111.946053 
	C254.423187,111.823593 257.862610,110.973930 257.996826,105.969917 
	C258.131622,100.943161 255.583420,97.072487 250.997360,97.093781 
	C242.338409,97.133987 233.682373,97.802872 224.522964,98.185272 
	C224.358841,98.458923 224.194733,98.732574 223.281250,99.123283 
	C222.191681,100.739746 220.489349,102.233902 220.137314,103.997574 
	C219.352051,107.931549 219.240982,112.000099 218.447144,116.157074 
	C218.159714,116.346588 218.074539,116.603355 218.044754,117.391541 
	C218.044754,117.391541 217.974457,117.873299 217.314468,118.343933 
	C216.258026,128.888870 215.201569,139.433807 213.778076,150.704224 
	C213.571426,154.468628 213.364761,158.233032 213.045090,162.749207 
	C212.363312,164.220703 211.681534,165.692200 210.166489,166.987076 
	C204.437469,166.723740 198.708450,166.460388 192.058685,166.052628 
	C184.426956,166.361542 176.795166,166.917282 169.163513,166.915314 
	C160.134262,166.912979 151.105164,166.429367 141.468735,165.898438 
	C141.335342,165.283401 141.201935,164.668350 141.741699,163.575287 
	C141.498642,160.654541 141.255585,157.733810 140.959396,154.431564 
	C140.959396,154.431564 140.839233,154.065598 140.980103,153.177734 
	C140.267380,148.491257 139.554672,143.804794 138.940491,138.231689 
M260.846985,235.806229 
	C260.894928,238.498062 261.048157,241.192886 260.972137,243.881210 
	C260.690948,253.823975 260.238708,263.763397 260.114197,273.707367 
	C260.096649,275.107025 261.269470,277.472626 262.353088,277.783997 
	C270.696411,280.181458 273.773529,277.736084 274.012787,269.042542 
	C274.039154,268.085236 274.267639,267.133484 274.258545,267.197876 
	C277.970734,265.642334 281.021362,264.364014 284.843445,263.018341 
	C291.047455,263.298584 295.356537,254.473434 293.822021,246.798233 
	C292.993011,242.651810 292.649506,237.953674 286.771301,236.419708 
	C286.164886,236.346405 285.558441,236.273087 284.519653,236.077194 
	C284.519653,236.077194 284.071777,236.040161 283.607147,235.299896 
	C279.053589,234.918365 274.504059,234.320145 269.944946,234.234772 
	C267.107727,234.181625 264.255981,234.904312 260.846985,235.806229 
M187.096725,188.647675 
	C185.679550,192.833633 187.539139,197.296570 191.277588,198.681549 
	C195.034607,200.073395 200.251602,197.961609 201.724808,194.452621 
	C203.070267,191.247879 201.549713,186.415695 198.712708,184.880493 
	C194.463409,182.581039 190.039108,183.807571 187.096725,188.647675 
M153.973633,196.435806 
	C158.612946,199.815659 162.676376,199.873688 165.821365,196.605026 
	C168.680847,193.633041 168.707794,189.753036 165.891968,186.432404 
	C163.672516,183.815033 158.345093,183.004318 155.661880,184.875595 
	C151.572662,187.727417 150.844223,191.266830 153.973633,196.435806 
M108.969231,261.960846 
	C114.860794,261.960846 120.752350,261.960846 126.628822,261.960846 
	C126.797569,260.523834 126.863060,259.871948 126.952003,259.223267 
	C127.775414,253.217529 127.622704,253.024078 121.769005,253.009186 
	C118.291138,253.000336 114.795959,252.823273 111.342461,253.118469 
	C109.581039,253.269012 106.449272,254.264709 106.435623,254.929657 
	C106.388214,257.241028 107.433960,259.574829 108.969231,261.960846 
z"/>
<path fill="#1891BC" opacity="1.000000" stroke="none" 
	d="
M157.087494,69.279686 
	C157.512741,69.232857 157.937973,69.186028 158.857544,69.235489 
	C159.932434,68.988640 160.513016,68.645508 161.093597,68.302368 
	C161.258118,68.257790 161.422638,68.213203 161.973969,68.216362 
	C162.360794,68.264107 162.685410,68.402634 163.051544,68.541702 
	C171.275467,68.463745 179.133240,68.246727 187.323761,68.221924 
	C188.781830,68.662231 189.899292,68.956017 191.033676,69.151474 
	C205.136566,71.581543 217.309219,77.984772 227.801697,87.523773 
	C229.241928,88.833115 229.270706,91.695000 229.952942,93.838097 
	C227.946564,93.892387 225.940170,93.946671 223.144638,93.954468 
	C220.752029,93.087074 218.966995,92.498535 217.573257,91.409294 
	C203.727982,80.589211 187.859451,76.843285 170.655365,78.117508 
	C167.703262,78.336159 164.850662,79.898758 161.952103,80.840515 
	C159.891602,81.471611 157.831100,82.102699 155.039276,82.914230 
	C147.403336,82.938293 142.549377,87.294609 137.567139,91.043297 
	C130.526535,96.340706 123.715820,101.983238 120.919693,110.938110 
	C120.911407,110.966034 120.969467,110.970695 120.752197,111.111069 
	C120.334404,111.531357 120.133881,111.811272 119.908661,112.239243 
	C119.883965,112.387306 119.907356,112.686600 119.712395,112.871964 
	C119.333588,113.361214 119.149734,113.665108 118.982529,113.984344 
	C118.999176,113.999695 118.967697,113.970261 118.775360,114.108109 
	C118.347008,114.460190 118.153458,114.707649 117.835541,115.302460 
	C112.424927,127.016647 110.373291,138.739090 111.741249,151.439056 
	C115.710854,188.292633 151.300156,215.446625 187.753403,208.792694 
	C198.993454,206.741013 209.497253,202.949860 218.364716,194.833023 
	C234.151215,182.964859 241.257874,166.864975 242.936722,148.003159 
	C243.913528,137.028961 241.114731,126.578255 238.032944,116.199127 
	C239.488815,116.137497 240.952850,116.152931 242.399078,116.000099 
	C247.114578,115.501793 250.067429,117.390038 251.031860,122.858459 
	C251.735550,127.707565 252.378052,131.860611 252.999542,136.478973 
	C252.661743,144.290787 252.344940,151.637314 251.872040,159.222336 
	C249.807404,165.288635 247.898865,171.116425 245.709503,177.137268 
	C244.855392,178.138535 244.169540,178.889587 243.725784,179.763565 
	C237.293060,192.432785 227.531647,202.135284 215.450089,209.103775 
	C188.512848,224.640778 159.512177,223.342697 133.315720,205.478119 
	C129.962402,203.191360 126.435638,201.158920 122.989227,199.008652 
	C122.989227,199.008652 123.000305,199.000000 122.879166,198.794464 
	C122.556656,198.325180 122.301682,198.132339 121.993080,198.010422 
	C121.993080,198.010422 121.999298,198.000610 121.988174,197.642792 
	C121.702393,196.508163 121.628983,195.553741 121.123299,194.980881 
	C111.430382,183.999863 105.346306,171.216690 102.036163,156.641434 
	C102.001511,155.191360 101.948067,154.138885 101.888916,152.756836 
	C101.619308,151.607132 101.355392,150.787018 101.087532,149.505066 
	C101.364021,144.252518 101.334518,139.419937 101.975166,134.677887 
	C106.142136,103.834053 123.510521,83.485237 152.056732,72.090179 
	C153.825729,71.384033 155.414749,70.226959 157.087494,69.279686 
z"/>
<path fill="#7BBB3C" opacity="1.000000" stroke="none" 
	d="
M217.011353,242.902039 
	C219.562531,235.726654 226.179916,235.478989 231.893982,235.206497 
	C246.775665,234.496765 253.184235,239.562866 253.962448,256.114166 
	C254.562927,268.885620 248.342438,275.889465 239.947693,277.313965 
	C235.283554,278.105408 230.291718,276.965515 224.963379,276.170898 
	C223.626465,275.445892 222.773773,275.246094 221.921066,275.046265 
	C221.921066,275.046265 221.984970,275.025177 221.844116,274.847229 
	C221.444534,274.446869 221.185837,274.224396 220.927124,274.001953 
	C220.927124,274.001953 220.999619,273.999115 220.841034,273.828308 
	C220.411469,273.439453 220.140503,273.221436 219.869522,273.003387 
	C219.869522,273.003387 219.541168,272.969452 219.306549,272.528778 
	C215.517075,264.382996 214.656509,256.223846 214.989944,247.863541 
	C214.989944,247.863541 215.055511,247.449142 215.273254,247.081268 
	C215.692795,246.482971 215.860016,246.229752 215.992676,245.953720 
	C215.992676,245.953720 216.098618,245.484177 216.309296,245.009018 
	C216.683777,243.989929 216.847580,243.445984 217.011353,242.902039 
M238.679260,246.681473 
	C238.412262,246.461441 238.145264,246.241409 237.233765,245.704269 
	C234.862076,245.491837 232.490372,245.279419 229.373169,245.114288 
	C227.705612,247.302063 225.063110,249.301453 224.595581,251.721115 
	C223.866989,255.491898 222.055695,260.091003 227.045929,263.571747 
	C227.264999,263.893066 227.484070,264.214355 227.600357,264.797485 
	C227.600357,264.797485 227.564819,264.930115 227.564819,264.930115 
	C227.564819,264.930115 227.731155,264.598907 228.236969,264.949463 
	C228.358078,265.114990 228.479202,265.280548 228.321259,265.377380 
	C228.321259,265.377380 228.346390,265.544495 228.346390,265.544495 
	C228.346390,265.544495 228.742081,265.615814 228.554993,265.380981 
	C228.554993,265.380981 228.789688,265.193695 229.158539,265.880676 
	C231.050827,268.233856 233.026398,268.814758 235.747818,266.040649 
	C236.148331,266.076477 236.548859,266.112305 237.226028,266.261536 
	C237.547073,266.296387 237.798233,266.176300 237.988297,265.987579 
	C237.988297,265.987579 237.901932,265.996094 238.301407,265.673309 
	C238.530594,265.419586 238.759781,265.165833 238.984634,264.985504 
	C238.984634,264.985504 238.911240,264.980865 239.320618,264.682739 
	C239.544632,264.431274 239.768631,264.179810 239.995697,264.005066 
	C239.995697,264.005066 239.918991,264.008270 240.320969,263.550964 
	C240.547241,262.992767 240.773529,262.434601 241.047699,261.440796 
	C241.047699,261.440796 241.175308,261.021545 241.517822,260.279144 
	C241.649399,256.105377 243.835571,251.663559 239.991287,248.008331 
	C239.991287,248.008331 240.000702,248.081314 239.690338,247.669586 
	C239.430191,247.446167 239.170029,247.222748 239.001358,246.997116 
	C239.001358,246.997116 239.003647,247.088593 238.679260,246.681473 
z"/>
<path fill="#7BBE3B" opacity="1.000000" stroke="none" 
	d="
M184.006775,262.139252 
	C183.915848,266.941986 183.824905,271.744720 182.960709,276.801117 
	C178.642395,276.676270 173.960068,278.235443 173.995575,271.967407 
	C174.053085,261.816681 174.051971,251.665100 173.986603,241.514450 
	C173.966446,238.383820 175.244827,236.837158 178.443146,237.014923 
	C179.937744,237.098007 181.436188,237.112076 182.923828,237.489105 
	C182.639877,240.774780 181.776627,243.833450 182.277740,246.649338 
	C182.673279,248.872101 184.498276,252.267471 186.128143,252.543243 
	C189.408539,253.098297 193.874939,254.988724 196.309998,249.787598 
	C198.266968,247.505875 198.645218,245.572952 196.023438,243.571762 
	C196.029495,242.491425 196.034668,241.771225 196.335236,240.883286 
	C197.072357,239.473816 197.514084,238.232071 198.394196,236.987183 
	C202.330200,237.142380 206.766022,235.981796 206.844925,241.662857 
	C206.986786,251.875900 206.924606,262.092255 206.890656,272.307007 
	C206.879715,275.598267 205.048889,276.881348 201.815506,276.989380 
	C196.700424,277.160339 195.676987,274.163208 195.908691,269.535278 
	C195.967117,267.754028 196.305267,266.328278 195.939163,265.115082 
	C195.425568,263.413116 194.340134,260.474182 193.583176,260.500244 
	C190.385056,260.610352 186.451660,257.726379 184.006775,262.139252 
z"/>
<path fill="#7ABB3B" opacity="1.000000" stroke="none" 
	d="
M136.912598,275.061249 
	C133.420532,272.402802 132.893326,267.793640 135.485336,262.583160 
	C148.501953,268.420349 149.654602,268.532562 152.302261,263.476501 
	C148.247101,262.203522 144.305206,260.966125 140.304489,259.217041 
	C139.920761,257.798737 139.833054,256.675873 139.234192,256.018982 
	C133.379257,249.597153 135.645844,240.428574 143.849731,237.560715 
	C145.252640,237.070312 146.621399,236.482330 148.373932,235.935089 
	C149.478149,235.934845 150.214355,235.938950 151.233490,236.138397 
	C152.994492,236.225647 154.472534,236.117523 156.324402,236.012573 
	C157.197540,236.011322 157.696854,236.006912 158.196167,236.002502 
	C158.196167,236.002502 158.548523,236.031616 158.834671,236.474731 
	C159.746979,240.420120 161.616440,244.066055 157.947601,247.072098 
	C157.947601,247.072098 157.977768,247.015717 157.850830,246.829712 
	C157.460617,246.430115 157.197342,246.216522 156.934082,246.002945 
	C156.934082,246.002945 157.004837,245.992523 156.770813,245.824295 
	C155.360626,245.693924 154.184494,245.731781 153.008347,245.769638 
	C152.833633,245.792603 152.658936,245.815552 151.926453,245.643982 
	C149.931519,245.675781 148.494385,245.902115 147.057251,246.128448 
	C147.531952,251.768112 152.112732,250.611755 155.910263,251.930756 
	C161.957596,257.064758 163.884094,263.034821 163.063644,270.077393 
	C163.063644,270.077393 163.055298,270.113251 162.754486,270.275452 
	C159.322952,272.302979 156.192230,274.168335 152.604309,276.023834 
	C147.068939,275.696442 141.990768,275.378845 136.912598,275.061249 
z"/>
<path fill="#7DC03C" opacity="1.000000" stroke="none" 
	d="
M284.071777,236.040161 
	C284.071777,236.040161 284.519653,236.077194 284.980957,236.285889 
	C285.984680,236.656464 286.527039,236.818344 287.069427,236.980225 
	C292.649506,237.953674 292.993011,242.651810 293.822021,246.798233 
	C295.356537,254.473434 291.047455,263.298584 284.002777,263.037476 
	C279.920929,263.440460 276.245911,263.045746 273.609283,264.514740 
	C272.143341,265.331482 272.878357,269.497162 271.744232,271.702332 
	C270.847321,273.446228 268.759033,275.202179 266.914886,275.586884 
	C265.898438,275.798950 263.487885,273.384735 263.119385,271.821350 
	C262.293365,268.316986 262.351013,264.604309 262.247772,260.619568 
	C262.633942,254.812698 262.878113,249.363968 262.993652,243.912506 
	C263.129150,237.517715 263.506866,237.178848 269.746155,236.972549 
	C273.841553,236.837143 277.926208,236.376068 282.358032,236.064545 
	C283.157562,236.058884 283.614655,236.049515 284.071777,236.040161 
M281.984070,255.006760 
	C281.984070,255.006760 281.952057,254.967056 282.625366,254.699905 
	C283.188293,254.111786 284.257507,253.496994 284.228149,252.940079 
	C284.087646,250.272461 284.358856,245.764084 283.183044,245.314896 
	C279.804810,244.024399 275.798523,244.378082 272.052063,244.923340 
	C272.386963,248.616806 272.721863,252.310287 273.711426,256.408142 
	C276.464264,255.925323 279.217072,255.442505 281.984070,255.006760 
z"/>
<path fill="#1891BC" opacity="1.000000" stroke="none" 
	d="
M96.786301,268.102325 
	C96.968338,268.145966 97.150375,268.189575 97.579056,268.726318 
	C97.843475,271.102478 97.861252,272.985504 97.420174,274.918579 
	C90.147041,274.998718 83.332489,275.002228 76.518608,275.071991 
	C73.769455,275.100128 72.051544,274.199005 72.063728,271.106232 
	C72.103020,261.133026 71.952187,251.155823 72.237610,241.190552 
	C72.277122,239.811066 74.291779,237.401733 75.509369,237.324768 
	C81.799423,236.927185 88.133995,236.988495 94.436676,237.264114 
	C95.561195,237.313293 96.608704,239.123657 97.691757,240.120804 
	C96.541611,241.050171 95.480896,242.603287 94.223351,242.783600 
	C91.287949,243.204483 88.257347,243.016113 85.266441,242.979950 
	C82.194527,242.942825 80.119698,243.857346 79.978378,247.405228 
	C79.835686,250.987473 80.865654,253.309601 85.401978,253.019165 
	C88.261566,253.320969 90.780273,253.318542 93.069267,254.042480 
	C94.095924,254.367188 94.662659,256.146118 95.438095,257.265137 
	C94.398460,257.848846 93.388870,258.860229 92.313530,258.935791 
	C89.119789,259.160187 85.900169,259.016205 82.380783,259.016205 
	C83.112297,260.342407 83.502914,261.050598 83.893532,261.758789 
	C83.477623,261.813232 83.061722,261.867676 82.071548,261.889465 
	C78.859222,264.579163 79.074623,266.699310 83.176819,268.291809 
	C87.694885,268.399933 91.846107,268.292786 95.997322,268.185638 
	C95.997322,268.185638 96.039352,268.065796 96.256271,268.124847 
	C96.473183,268.183899 96.786301,268.102325 96.786301,268.102325 
z"/>
<path fill="#79C23C" opacity="1.000000" stroke="none" 
	d="
M218.855194,116.013817 
	C219.240982,112.000099 219.352051,107.931549 220.137314,103.997574 
	C220.489349,102.233902 222.191681,100.739746 223.886627,99.078041 
	C224.492004,99.032799 224.953888,99.007805 224.971313,99.025864 
	C224.988724,99.043922 225.038345,99.036629 225.391724,99.242134 
	C235.160538,99.668289 244.575989,99.888947 253.998169,100.330170 
	C254.004913,100.550743 254.021759,100.991768 253.815903,101.261368 
	C251.074173,104.057831 246.406616,104.883583 246.491653,109.888130 
	C241.726791,110.069275 236.452621,108.786049 233.411728,110.828239 
	C230.683136,112.660713 230.410309,118.149910 228.728821,122.112701 
	C224.115005,124.214882 227.876648,126.717789 227.988678,129.245361 
	C227.985657,129.490829 227.984406,129.981812 227.649261,130.065887 
	C225.580872,131.170471 223.847641,132.190964 222.265823,133.122299 
	C221.051910,131.611664 220.002762,130.306091 218.952621,128.538055 
	C218.947784,124.347115 218.943970,120.618645 218.926880,116.670319 
	C218.913605,116.450455 218.855194,116.013817 218.855194,116.013817 
z"/>
<path fill="#7BC13C" opacity="1.000000" stroke="none" 
	d="
M205.831238,120.029541 
	C205.543686,123.726387 205.256149,127.423225 204.683105,131.864044 
	C203.930862,134.663925 203.514221,136.732803 202.987473,138.773239 
	C201.672516,143.866943 200.307510,148.947739 198.578064,154.018250 
	C190.459732,153.988785 182.725937,153.974808 174.934341,153.619141 
	C173.767639,151.953110 172.658737,150.628769 170.634506,148.211258 
	C173.720825,147.732300 176.154755,147.605057 178.426727,146.931503 
	C180.694550,146.259201 182.800140,145.039719 185.387024,144.050812 
	C192.238831,143.607376 193.634674,141.077377 191.923248,132.590378 
	C191.942932,131.505920 191.954910,130.782944 192.089508,129.708206 
	C194.705536,128.176712 197.198929,126.996948 199.458084,125.928032 
	C198.988831,123.711426 198.493500,121.371658 198.003448,118.806290 
	C198.008713,118.580688 198.015732,118.129433 198.403854,118.112854 
	C201.138397,118.740700 203.484818,119.385124 205.831238,120.029541 
z"/>
<path fill="#147491" opacity="1.000000" stroke="none" 
	d="
M119.907349,112.686600 
	C119.907356,112.686600 119.883965,112.387306 120.092400,112.060837 
	C120.523712,111.479813 120.746590,111.225250 120.969467,110.970695 
	C120.969467,110.970695 120.911407,110.966034 121.215599,110.967407 
	C121.717079,110.985336 121.914375,111.001877 122.111664,111.018425 
	C119.538971,118.394081 115.740517,125.591034 114.634041,133.180450 
	C111.832603,152.395782 115.624405,170.290176 128.882217,185.359207 
	C137.735016,195.421417 148.595657,202.823730 161.587692,205.548279 
	C179.912521,209.391220 197.704330,207.394836 213.505493,196.026169 
	C214.032867,195.646729 214.636932,195.373901 215.918396,195.017212 
	C217.117645,194.992783 217.603714,195.002502 218.089798,195.012222 
	C209.497253,202.949860 198.993454,206.741013 187.753403,208.792694 
	C151.300156,215.446625 115.710854,188.292633 111.741249,151.439056 
	C110.373291,138.739090 112.424927,127.016647 118.008987,115.145195 
	C118.571884,114.453751 118.778023,114.219238 118.967697,113.970261 
	C118.967697,113.970261 118.999176,113.999695 119.166656,113.793076 
	C119.525215,113.286499 119.716286,112.986549 119.907349,112.686600 
z"/>
<path fill="#157392" opacity="1.000000" stroke="none" 
	d="
M123.097557,199.327240 
	C126.435638,201.158920 129.962402,203.191360 133.315720,205.478119 
	C159.512177,223.342697 188.512848,224.640778 215.450089,209.103775 
	C227.531647,202.135284 237.293060,192.432785 243.725784,179.763565 
	C244.169540,178.889587 244.855392,178.138535 245.715302,177.535675 
	C246.018005,178.534973 246.034073,179.328934 246.050140,180.122879 
	C241.076141,191.264801 232.959351,199.792130 223.260132,206.840179 
	C208.246140,217.750336 191.308517,223.168900 172.803223,221.896255 
	C153.724335,220.584167 136.648270,213.945969 123.097557,199.327240 
z"/>
<path fill="#63BC42" opacity="1.000000" stroke="none" 
	d="
M210.999756,167.163696 
	C211.681534,165.692200 212.363312,164.220703 213.387573,162.302856 
	C214.457443,161.560593 215.184830,161.264679 216.245667,160.880936 
	C217.777069,159.531677 218.975021,158.270233 220.296921,156.878281 
	C221.680176,157.208435 223.261292,157.585815 224.854126,158.388382 
	C224.258759,164.079895 223.471359,169.333786 223.107834,174.616852 
	C222.864700,178.150269 221.113266,179.070236 217.932922,179.003952 
	C211.624435,178.872498 205.311569,178.952591 199.036514,178.590530 
	C201.372864,175.184402 203.673203,172.133011 206.347092,169.064621 
	C208.127502,168.677185 209.534378,168.306747 210.955780,167.743149 
	C210.970337,167.549988 210.999756,167.163696 210.999756,167.163696 
z"/>
<path fill="#0F6D8D" opacity="1.000000" stroke="none" 
	d="
M156.692001,69.168457 
	C155.414749,70.226959 153.825729,71.384033 152.056732,72.090179 
	C123.510521,83.485237 106.142136,103.834053 101.975166,134.677887 
	C101.334518,139.419937 101.364021,144.252518 100.872047,149.679184 
	C100.163673,150.546951 99.666840,150.778763 99.170013,151.010559 
	C97.593506,125.041077 106.291809,102.974670 125.313118,85.406265 
	C134.023514,77.361206 144.142242,71.038368 156.692001,69.168457 
z"/>
<path fill="#94C637" opacity="1.000000" stroke="none" 
	d="
M127.151352,150.023056 
	C127.097458,148.640411 127.043571,147.257782 126.858170,145.153519 
	C126.483551,142.294617 126.240440,140.157333 126.298492,137.901978 
	C130.048859,137.851227 133.498062,137.918518 137.124268,138.184204 
	C137.565552,138.621048 137.829834,138.859482 138.100388,139.473175 
	C138.098755,140.849167 138.090851,141.849884 138.061279,143.258667 
	C138.361511,145.428116 138.683426,147.189499 139.022995,148.963593 
	C139.040634,148.976273 139.042389,149.019684 139.032776,149.269089 
	C139.023148,149.518494 139.015640,150.017593 139.014496,150.258942 
	C139.013351,150.500275 139.010605,150.982971 139.009033,151.244629 
	C139.009476,151.680740 139.011520,151.855179 139.026031,152.267960 
	C139.038498,152.506302 139.076309,152.982132 138.798096,153.199066 
	C136.422852,156.803345 135.757095,161.802292 129.871826,160.623505 
	C128.907974,156.825378 128.029663,153.424225 127.151352,150.023056 
z"/>
<path fill="#0D7193" opacity="1.000000" stroke="none" 
	d="
M84.967514,253.010880 
	C80.865654,253.309601 79.835686,250.987473 79.978378,247.405228 
	C80.119698,243.857346 82.194527,242.942825 85.266441,242.979950 
	C88.257347,243.016113 91.287949,243.204483 94.223351,242.783600 
	C95.480896,242.603287 96.541611,241.050171 97.691757,240.120804 
	C96.608704,239.123657 95.561195,237.313293 94.436676,237.264114 
	C88.133995,236.988495 81.799423,236.927185 75.509369,237.324768 
	C74.291779,237.401733 72.277122,239.811066 72.237610,241.190552 
	C71.952187,251.155823 72.103020,261.133026 72.063728,271.106232 
	C72.051544,274.199005 73.769455,275.100128 76.518608,275.071991 
	C83.332489,275.002228 90.147041,274.998718 97.627045,275.109375 
	C98.783745,275.503021 99.274719,275.755951 99.765701,276.008850 
	C98.943619,276.660400 98.125061,277.869293 97.298882,277.874512 
	C91.235344,277.912872 85.170700,277.678467 79.105499,277.598907 
	C76.571053,277.565643 74.034401,277.699951 71.253815,276.976624 
	C70.996773,264.714996 70.936691,253.234467 71.019447,241.754959 
	C71.033363,239.823410 71.664589,237.896317 72.478546,235.973816 
	C81.283836,235.978394 89.621185,235.976334 98.174271,236.308838 
	C99.653999,243.208633 99.188873,243.768723 92.706726,244.089203 
	C91.524429,244.147644 90.367439,244.718018 89.198776,245.052063 
	C87.024490,245.536942 84.850204,246.021820 81.524361,246.763504 
	C82.501320,248.298965 83.363029,249.653275 84.601212,251.400543 
	C84.974289,252.199295 84.970901,252.605087 84.967514,253.010880 
z"/>
<path fill="#689E48" opacity="1.000000" stroke="none" 
	d="
M229.054123,122.025948 
	C230.410309,118.149910 230.683136,112.660713 233.411728,110.828239 
	C236.452621,108.786049 241.726791,110.069275 246.900757,109.908707 
	C256.327118,108.929123 257.955383,106.604767 254.021759,100.991768 
	C254.021759,100.991768 254.004913,100.550743 253.649155,100.100540 
	C243.875046,99.445770 234.456696,99.241196 225.038345,99.036629 
	C225.038345,99.036629 224.988724,99.043922 224.994125,98.826874 
	C224.999527,98.609818 225.025131,98.210472 225.025131,98.210472 
	C233.682373,97.802872 242.338409,97.133987 250.997360,97.093781 
	C255.583420,97.072487 258.131622,100.943161 257.996826,105.969917 
	C257.862610,110.973930 254.423187,111.823593 250.565613,111.946053 
	C246.077484,112.088539 241.569580,112.136856 237.090485,111.877327 
	C233.146622,111.648811 232.197464,113.233009 231.840729,117.064583 
	C230.501968,131.443542 228.644226,145.774170 226.743179,160.198792 
	C226.342636,158.479446 226.179886,156.684235 226.010223,154.692886 
	C226.003296,154.496750 226.005432,154.101257 226.193146,153.760986 
	C226.908371,150.523972 227.435852,147.627243 227.953888,144.461487 
	C227.954483,143.833801 227.964523,143.475098 227.980713,142.681885 
	C227.993958,140.540588 228.001053,138.833817 228.007874,136.739975 
	C227.999863,134.229202 227.992142,132.105499 227.984406,129.981812 
	C227.984406,129.981812 227.985657,129.490829 228.229919,129.074615 
	C228.667511,126.447571 228.860809,124.236763 229.054123,122.025948 
z"/>
<path fill="#1A7691" opacity="1.000000" stroke="none" 
	d="
M218.364716,194.833023 
	C217.603714,195.002502 217.117645,194.992783 216.267685,194.975372 
	C221.554123,188.194626 228.251724,182.017258 232.543594,174.471542 
	C236.399734,167.691940 238.102005,159.521011 239.874527,151.762787 
	C242.330383,141.013733 240.339783,130.529419 236.332977,120.343727 
	C235.924026,119.304138 236.959747,117.696259 237.679016,116.275612 
	C241.114731,126.578255 243.913528,137.028961 242.936722,148.003159 
	C241.257874,166.864975 234.151215,182.964859 218.364716,194.833023 
z"/>
<path fill="#8BC236" opacity="1.000000" stroke="none" 
	d="
M129.957367,161.020477 
	C135.757095,161.802292 136.422852,156.803345 139.027252,153.316467 
	C139.969467,153.499817 140.404358,153.782700 140.839233,154.065598 
	C140.839233,154.065598 140.959396,154.431564 140.969604,155.044205 
	C141.009399,158.455673 141.038971,161.254486 141.068542,164.053314 
	C141.201935,164.668350 141.335342,165.283401 141.784332,166.320190 
	C142.122681,167.133377 142.145432,167.524811 142.064911,168.034882 
	C141.807770,168.441559 141.821075,168.726730 141.935104,169.363953 
	C139.520370,172.537567 134.387909,173.579239 135.624054,178.936310 
	C133.826630,178.637695 132.399719,178.324966 130.978241,177.563690 
	C130.641586,171.750244 130.299469,166.385361 129.957367,161.020477 
z"/>
<path fill="#0D7193" opacity="1.000000" stroke="none" 
	d="
M162.400085,80.912811 
	C164.850662,79.898758 167.703262,78.336159 170.655365,78.117508 
	C187.859451,76.843285 203.727982,80.589211 217.573257,91.409294 
	C218.966995,92.498535 220.752029,93.087074 222.715057,93.976913 
	C220.768814,97.444481 218.475098,95.472580 216.418243,93.865364 
	C203.689850,83.919479 189.273254,79.284698 173.158310,79.999710 
	C169.713760,80.152534 166.284424,80.647659 162.400085,80.912811 
z"/>
<path fill="#1A7691" opacity="1.000000" stroke="none" 
	d="
M230.340668,93.921364 
	C229.270706,91.695000 229.241928,88.833115 227.801697,87.523773 
	C217.309219,77.984772 205.136566,71.581543 191.033676,69.151474 
	C189.899292,68.956017 188.781830,68.662231 186.965759,68.016998 
	C179.135147,67.403099 171.995285,67.186317 164.855408,66.969543 
	C173.676956,66.974609 182.655685,65.929062 191.284897,67.219917 
	C205.867203,69.401291 218.969437,75.625893 229.606079,86.203423 
	C231.504456,88.091248 232.817505,90.567650 234.887894,93.450500 
	C232.826965,93.725060 231.777679,93.864845 230.340668,93.921364 
z"/>
<path fill="#83A957" opacity="1.000000" stroke="none" 
	d="
M262.048828,260.976471 
	C262.351013,264.604309 262.293365,268.316986 263.119385,271.821350 
	C263.487885,273.384735 265.898438,275.798950 266.914886,275.586884 
	C268.759033,275.202179 270.847321,273.446228 271.744232,271.702332 
	C272.878357,269.497162 272.143341,265.331482 273.609283,264.514740 
	C276.245911,263.045746 279.920929,263.440460 283.617065,263.071106 
	C281.021362,264.364014 277.970734,265.642334 274.258545,267.197876 
	C274.267639,267.133484 274.039154,268.085236 274.012787,269.042542 
	C273.773529,277.736084 270.696411,280.181458 262.353088,277.783997 
	C261.269470,277.472626 260.096649,275.107025 260.114197,273.707367 
	C260.238708,263.763397 260.690948,253.823975 260.972137,243.881210 
	C261.048157,241.192886 260.894928,238.498062 261.280151,235.730835 
	C261.713318,235.655457 262.024780,236.024689 262.013885,236.490860 
	C262.018280,244.963516 262.033569,252.969986 262.048828,260.976471 
z"/>
<path fill="#77A359" opacity="1.000000" stroke="none" 
	d="
M202.966095,181.837814 
	C197.672531,181.880371 192.375916,182.055191 187.086121,181.933701 
	C179.625641,181.762344 172.169403,181.116684 164.712799,181.140091 
	C155.646255,181.168549 146.582214,181.722580 137.514557,181.946640 
	C135.932632,181.985718 134.338196,181.518311 132.743851,180.873337 
	C134.715698,180.304977 136.692917,180.016495 138.670807,180.011780 
	C156.800949,179.968628 174.931198,179.974716 193.348785,179.975616 
	C194.017258,179.995682 194.398376,180.006577 195.214584,180.026962 
	C198.088486,180.636917 200.527298,181.237366 202.966095,181.837814 
z"/>
<path fill="#157392" opacity="1.000000" stroke="none" 
	d="
M99.267715,151.397675 
	C99.666840,150.778763 100.163673,150.546951 100.875992,150.141022 
	C101.355392,150.787018 101.619308,151.607132 101.730881,153.014313 
	C101.724823,154.747269 101.871094,155.893158 102.017365,157.039047 
	C105.346306,171.216690 111.430382,183.999863 121.123299,194.980881 
	C121.628983,195.553741 121.702393,196.508163 121.982956,197.645538 
	C117.704887,192.800003 112.861931,187.950302 109.263702,182.306961 
	C103.387833,173.091415 100.718231,162.593857 99.267715,151.397675 
z"/>
<path fill="#7FA154" opacity="1.000000" stroke="none" 
	d="
M195.874146,269.985626 
	C195.676987,274.163208 196.700424,277.160339 201.815506,276.989380 
	C205.048889,276.881348 206.879715,275.598267 206.890656,272.307007 
	C206.924606,262.092255 206.986786,251.875900 206.844925,241.662857 
	C206.766022,235.981796 202.330200,237.142380 198.125885,236.960083 
	C196.959427,238.307770 196.499649,239.679398 196.039856,241.051010 
	C196.034668,241.771225 196.029495,242.491425 195.814636,243.581284 
	C195.604950,243.950928 195.187607,243.960754 195.187607,243.960754 
	C195.120331,242.136703 195.040070,240.313034 194.988602,238.488541 
	C194.896683,235.229233 195.802139,233.568649 199.639740,234.672882 
	C202.205566,235.411163 206.526047,234.267761 207.410767,235.655823 
	C208.779541,237.803314 207.933243,241.394119 207.939331,244.373077 
	C207.961670,255.320877 207.948196,266.268738 207.948196,277.150421 
	C197.381073,279.870239 194.975510,278.665009 195.275116,270.431305 
	C195.519485,269.993286 195.874146,269.985626 195.874146,269.985626 
z"/>
<path fill="#96B85C" opacity="1.000000" stroke="none" 
	d="
M191.966888,130.059952 
	C191.954910,130.782944 191.942932,131.505920 191.740540,132.761841 
	C191.342957,133.556412 191.135788,133.818069 190.928619,134.079742 
	C189.306839,133.370316 187.690506,132.059708 186.062454,132.045013 
	C170.710922,131.906403 155.357376,131.988800 139.484985,131.959396 
	C138.965546,131.911331 138.827576,131.760712 138.882660,131.489288 
	C138.979370,130.848404 139.021011,130.478928 139.525024,130.083130 
	C156.985077,130.036911 173.982727,130.017014 191.227051,130.012360 
	C191.473694,130.027603 191.966888,130.059952 191.966888,130.059952 
z"/>
<path fill="#0D7193" opacity="1.000000" stroke="none" 
	d="
M122.404312,110.860756 
	C121.914375,111.001877 121.717079,110.985336 121.223885,110.939491 
	C123.715820,101.983238 130.526535,96.340706 137.567139,91.043297 
	C142.549377,87.294609 147.403336,82.938293 154.721527,83.093765 
	C149.134567,86.715088 142.544937,89.649780 137.294907,94.147980 
	C131.762299,98.888298 127.509117,105.121902 122.404312,110.860756 
z"/>
<path fill="#4C9B3E" opacity="1.000000" stroke="none" 
	d="
M203.373260,181.909515 
	C200.527298,181.237366 198.088486,180.636917 195.530670,179.826782 
	C196.607925,179.393158 197.804214,179.169205 199.000504,178.945251 
	C205.311569,178.952591 211.624435,178.872498 217.932922,179.003952 
	C221.113266,179.070236 222.864700,178.150269 223.107834,174.616852 
	C223.471359,169.333786 224.258759,164.079895 224.919189,158.063095 
	C225.320740,156.504745 225.668945,155.696884 226.017151,154.889023 
	C226.179886,156.684235 226.342636,158.479446 226.674149,160.614517 
	C226.187927,166.823151 225.717575,172.724106 224.705078,178.530533 
	C224.526169,179.556595 222.142487,180.752167 220.678040,180.901901 
	C215.067368,181.475555 209.416367,181.654770 203.373260,181.909515 
z"/>
<path fill="#5A9149" opacity="1.000000" stroke="none" 
	d="
M187.300201,188.317780 
	C190.039108,183.807571 194.463409,182.581039 198.712708,184.880493 
	C201.549713,186.415695 203.070267,191.247879 201.724808,194.452621 
	C200.251602,197.961609 195.034607,200.073395 191.277588,198.681549 
	C187.539139,197.296570 185.679550,192.833633 187.300201,188.317780 
M190.055618,194.310516 
	C192.437408,197.197037 195.417114,198.264984 197.858063,195.023132 
	C199.024902,193.473450 199.399536,189.938385 198.401291,188.529968 
	C197.360367,187.061340 193.118988,185.882294 192.261612,186.688171 
	C190.644135,188.208527 190.450241,191.243454 190.055618,194.310516 
z"/>
<path fill="#83A957" opacity="1.000000" stroke="none" 
	d="
M142.168182,167.916245 
	C142.145432,167.524811 142.122681,167.133377 142.087952,166.448151 
	C151.105164,166.429367 160.134262,166.912979 169.163513,166.915314 
	C176.795166,166.917282 184.426956,166.361542 192.518707,166.399170 
	C192.978928,167.111481 192.979111,167.477249 192.513245,167.873474 
	C184.704056,167.938889 177.360962,167.973831 169.547256,167.999283 
	C160.107162,167.965286 151.137680,167.940765 142.168182,167.916245 
z"/>
<path fill="#6F9951" opacity="1.000000" stroke="none" 
	d="
M153.686020,196.154755 
	C150.844223,191.266830 151.572662,187.727417 155.661880,184.875595 
	C158.345093,183.004318 163.672516,183.815033 165.891968,186.432404 
	C168.707794,189.753036 168.680847,193.633041 165.821365,196.605026 
	C162.676376,199.873688 158.612946,199.815659 153.686020,196.154755 
M162.462433,196.183746 
	C163.379776,193.987045 165.306107,191.627823 164.984421,189.630707 
	C164.466812,186.417282 161.110794,185.047791 158.389511,186.519730 
	C156.545944,187.516937 154.566559,190.561493 154.743301,192.499237 
	C155.073685,196.121033 158.003815,197.625397 162.462433,196.183746 
z"/>
<path fill="#1A7691" opacity="1.000000" stroke="none" 
	d="
M85.401985,253.019165 
	C84.970901,252.605087 84.974289,252.199295 84.975349,251.489288 
	C89.124733,251.185059 93.276436,251.185059 97.720665,251.185059 
	C97.822487,253.100647 97.798561,254.732239 98.015297,256.331207 
	C98.624321,260.824066 96.385429,262.265289 92.278641,262.021149 
	C89.799477,261.873779 87.306870,261.952454 84.356918,261.844177 
	C83.502914,261.050598 83.112297,260.342407 82.380783,259.016205 
	C85.900169,259.016205 89.119789,259.160187 92.313530,258.935791 
	C93.388870,258.860229 94.398460,257.848846 95.438095,257.265137 
	C94.662659,256.146118 94.095924,254.367188 93.069267,254.042480 
	C90.780273,253.318542 88.261566,253.320969 85.401985,253.019165 
z"/>
<path fill="#83A957" opacity="1.000000" stroke="none" 
	d="
M176.941818,156.094025 
	C169.543045,156.289703 162.115891,156.967194 154.754211,156.533463 
	C148.506119,156.165314 151.681702,150.007355 150.149582,146.688705 
	C149.072525,144.355759 150.069717,141.887314 153.774963,141.934921 
	C164.877899,142.077606 175.983475,142.012756 187.179672,142.273071 
	C178.040161,142.671860 168.809418,142.858597 159.577744,142.971359 
	C151.614731,143.068649 150.726639,144.233887 152.985992,152.396271 
	C154.409317,153.463120 155.713135,154.206711 157.276169,154.965363 
	C157.708435,154.983521 157.881500,154.986603 158.369812,154.984955 
	C159.105453,154.977585 159.525818,154.974960 160.419037,154.979797 
	C166.251495,155.034393 171.611145,155.081543 176.961670,155.369980 
	C176.952576,155.611252 176.941818,156.094040 176.941818,156.094025 
z"/>
<path fill="#7AA550" opacity="1.000000" stroke="none" 
	d="
M177.198700,156.435028 
	C176.941818,156.094040 176.952576,155.611252 177.432922,155.347549 
	C184.929703,154.733795 191.946152,154.383743 198.962601,154.033707 
	C200.307510,148.947739 201.672516,143.866943 202.987473,138.773239 
	C203.514221,136.732803 203.930862,134.663925 204.618256,132.314056 
	C204.369858,137.703094 204.227219,143.437103 203.348938,149.056137 
	C202.257523,156.038910 201.993134,155.895294 194.616364,156.020920 
	C188.893463,156.118378 183.175659,156.513306 177.198700,156.435028 
z"/>
<path fill="#78AC37" opacity="1.000000" stroke="none" 
	d="
M152.866501,152.073029 
	C150.726639,144.233887 151.614731,143.068649 159.577744,142.971359 
	C168.809418,142.858597 178.040161,142.671860 187.645508,142.338730 
	C188.901505,139.704910 189.783310,137.249603 190.796860,134.437012 
	C191.135788,133.818069 191.342957,133.556412 191.732819,133.123291 
	C193.634674,141.077377 192.238831,143.607376 184.921295,144.039459 
	C176.446945,144.026779 168.848480,144.012070 161.250015,144.006531 
	C153.204941,144.000656 153.204941,144.004471 152.866501,152.073029 
z"/>
<path fill="#A4BA66" opacity="1.000000" stroke="none" 
	d="
M126.010750,117.195709 
	C142.703079,117.139618 159.395416,117.083527 176.545288,117.291634 
	C177.002853,117.555840 177.021561,117.958275 176.574982,117.971436 
	C173.755035,118.016075 171.381699,118.047554 168.539551,118.054749 
	C154.061157,117.979523 140.051590,117.928581 126.036415,117.707054 
	C126.030823,117.536469 126.010750,117.195709 126.010750,117.195709 
z"/>
<path fill="#6DA639" opacity="1.000000" stroke="none" 
	d="
M182.932892,237.157410 
	C181.436188,237.112076 179.937744,237.098007 178.443146,237.014923 
	C175.244827,236.837158 173.966446,238.383820 173.986603,241.514450 
	C174.051971,251.665100 174.053085,261.816681 173.995575,271.967407 
	C173.960068,278.235443 178.642395,276.676270 182.628647,277.076233 
	C180.079788,277.384003 176.956223,278.285858 174.159836,277.679260 
	C172.891449,277.404144 172.271927,274.137604 171.843719,271.725708 
	C172.501556,260.129089 172.673706,249.034775 172.832642,237.571976 
	C172.802917,236.712433 172.786392,236.221390 172.769852,235.730347 
	C172.769852,235.730347 172.868423,235.761292 173.285461,235.801956 
	C176.813171,235.878372 179.923843,235.914124 183.017868,236.252502 
	C182.978439,236.755905 182.955673,236.956665 182.932892,237.157410 
z"/>
<path fill="#6DA639" opacity="1.000000" stroke="none" 
	d="
M148.005920,235.939423 
	C146.621399,236.482330 145.252640,237.070312 143.849731,237.560715 
	C135.645844,240.428574 133.379257,249.597153 139.234192,256.018982 
	C139.833054,256.675873 139.920761,257.798737 140.091339,258.906433 
	C133.830215,256.271210 133.610397,250.821793 134.065140,245.289764 
	C134.467239,240.398102 137.644058,237.562775 142.886871,235.991486 
	C145.124039,235.977127 146.564972,235.958267 148.005920,235.939423 
z"/>
<path fill="#66A337" opacity="1.000000" stroke="none" 
	d="
M193.061417,179.966446 
	C174.931198,179.974716 156.800949,179.968628 138.670807,180.011780 
	C136.692917,180.016495 134.715698,180.304977 132.374207,180.656769 
	C131.354034,180.111389 130.697830,179.371048 130.297470,178.317459 
	C130.553329,178.004196 130.972794,178.012253 130.972794,178.012253 
	C132.399719,178.324966 133.826630,178.637695 136.088989,178.958130 
	C141.283157,178.945786 145.641876,178.925735 150.468109,178.931702 
	C160.281998,178.944717 169.628342,178.931717 179.438751,178.934967 
	C184.289001,179.289627 188.675217,179.628036 193.061417,179.966446 
z"/>
<path fill="#2F708D" opacity="1.000000" stroke="none" 
	d="
M108.516602,261.930481 
	C107.433960,259.574829 106.388214,257.241028 106.435623,254.929657 
	C106.449272,254.264709 109.581039,253.269012 111.342461,253.118469 
	C114.795959,252.823273 118.291138,253.000336 121.769005,253.009186 
	C127.622704,253.024078 127.775414,253.217529 126.952003,259.223267 
	C126.863060,259.871948 126.797569,260.523834 126.628822,261.960846 
	C120.752350,261.960846 114.860794,261.960846 108.516602,261.930481 
M107.606308,256.425110 
	C107.676414,257.567047 107.746521,258.708984 108.536598,260.338593 
	C113.287529,260.543671 118.041100,260.908447 122.787338,260.829956 
	C123.838425,260.812561 125.481728,259.376373 125.732254,258.326263 
	C125.999397,257.206512 125.308067,255.314163 124.382706,254.564362 
	C122.301765,252.878220 110.255692,254.131653 107.606308,256.425110 
z"/>
<path fill="#78AC37" opacity="1.000000" stroke="none" 
	d="
M130.978241,177.563690 
	C130.972794,178.012253 130.553329,178.004196 130.343719,177.995636 
	C129.087234,168.967300 128.040344,159.947495 127.072403,150.475372 
	C128.029663,153.424225 128.907974,156.825378 129.871826,160.623505 
	C130.299469,166.385361 130.641586,171.750244 130.978241,177.563690 
z"/>
<path fill="#83A957" opacity="1.000000" stroke="none" 
	d="
M182.923828,237.489105 
	C182.955673,236.956665 182.978439,236.755905 183.203064,236.252991 
	C183.404922,235.950836 183.775146,235.971924 183.775146,235.971924 
	C183.845169,239.074402 183.711029,242.200104 184.060120,245.270859 
	C184.277359,247.181900 185.302170,250.632767 185.833191,250.607712 
	C188.929794,250.461670 192.806549,253.041229 195.283478,248.589172 
	C195.696167,248.953613 195.872772,249.480911 196.049377,250.008194 
	C193.874939,254.988724 189.408539,253.098297 186.128143,252.543243 
	C184.498276,252.267471 182.673279,248.872101 182.277740,246.649338 
	C181.776627,243.833450 182.639877,240.774780 182.923828,237.489105 
z"/>
<path fill="#1A7691" opacity="1.000000" stroke="none" 
	d="
M253.020538,136.013657 
	C252.378052,131.860611 251.735550,127.707565 251.078217,123.230545 
	C252.376236,127.139267 254.356949,131.297821 254.837158,135.622971 
	C255.473465,141.353989 254.936920,147.215256 254.677658,153.081451 
	C253.974121,147.432800 253.497330,141.723221 253.020538,136.013657 
z"/>
<path fill="#1A7691" opacity="1.000000" stroke="none" 
	d="
M246.344955,179.922272 
	C246.034073,179.328934 246.018005,178.534973 245.996124,177.342621 
	C247.898865,171.116425 249.807404,165.288635 252.053711,158.961365 
	C252.939301,157.325912 253.487106,156.189926 254.034912,155.053940 
	C254.205078,164.066528 250.246521,171.841370 246.344955,179.922272 
z"/>
<path fill="#1A7691" opacity="1.000000" stroke="none" 
	d="
M97.958527,235.974258 
	C89.621185,235.976334 81.283836,235.978394 72.501526,235.670792 
	C72.100700,234.957458 72.144836,234.553802 72.188980,234.150146 
	C72.593315,234.118134 72.997658,234.086105 73.995224,234.266205 
	C76.062752,234.374252 77.537048,234.270172 79.011353,234.166107 
	C84.685883,234.112747 90.360405,234.059387 96.627350,234.301895 
	C97.466011,235.056595 97.712265,235.515427 97.958527,235.974258 
z"/>
<path fill="#96B85C" opacity="1.000000" stroke="none" 
	d="
M125.616852,117.133194 
	C126.010750,117.195709 126.030823,117.536469 125.725456,117.880775 
	C124.959953,119.496513 124.499825,120.767937 124.046494,122.366135 
	C124.064171,123.128586 124.075050,123.564247 124.212357,124.193222 
	C124.525185,124.634537 124.736931,124.858582 124.992493,125.438858 
	C125.339745,129.886047 125.668541,133.953049 125.997330,138.020050 
	C126.240440,140.157333 126.483551,142.294617 126.833664,144.740173 
	C125.964729,141.712112 124.767197,138.421341 124.069565,135.027786 
	C123.217598,130.883423 122.708878,126.662003 122.200760,122.455894 
	C121.907539,120.028671 121.238403,117.186584 125.616852,117.133194 
z"/>
<path fill="#2F708D" opacity="1.000000" stroke="none" 
	d="
M71.776588,234.217712 
	C72.144836,234.553802 72.100700,234.957458 72.033585,235.664139 
	C71.664589,237.896317 71.033363,239.823410 71.019447,241.754959 
	C70.936691,253.234467 70.996773,264.714996 71.013451,276.678101 
	C70.677956,276.118988 70.047966,275.078613 70.042137,274.034760 
	C69.975632,262.124115 69.961342,250.212555 70.067078,238.302444 
	C70.078995,236.959641 70.911972,235.624161 71.776588,234.217712 
z"/>
<path fill="#6F9951" opacity="1.000000" stroke="none" 
	d="
M214.145111,149.978745 
	C215.201569,139.433807 216.258026,128.888870 217.650055,118.564682 
	C217.317230,126.855293 216.648834,134.925156 215.978180,143.318573 
	C215.970123,144.072723 215.964325,144.503281 215.780579,145.221985 
	C215.116791,146.999664 214.630966,148.489197 214.145111,149.978745 
z"/>
<path fill="#6DA639" opacity="1.000000" stroke="none" 
	d="
M163.401199,269.876587 
	C163.884094,263.034821 161.957596,257.064758 156.147644,252.242767 
	C163.690613,254.583008 167.143326,262.576538 163.401199,269.876587 
z"/>
<path fill="#7AA550" opacity="1.000000" stroke="none" 
	d="
M214.643829,248.097778 
	C214.656509,256.223846 215.517075,264.382996 219.157959,272.456909 
	C213.280548,268.459442 213.992035,261.908966 213.765366,255.728867 
	C213.675308,253.273071 214.104782,250.798203 214.643829,248.097778 
z"/>
<path fill="#66A337" opacity="1.000000" stroke="none" 
	d="
M213.961609,150.341492 
	C214.630966,148.489197 215.116791,146.999664 215.793762,145.688889 
	C215.960663,150.901367 215.936432,155.935059 215.912201,160.968765 
	C215.184830,161.264679 214.457443,161.560593 213.444092,161.926971 
	C213.364761,158.233032 213.571426,154.468628 213.961609,150.341492 
z"/>
<path fill="#83A957" opacity="1.000000" stroke="none" 
	d="
M177.021561,117.958267 
	C177.021561,117.958275 177.002853,117.555840 176.990448,117.354782 
	C185.470917,116.788818 193.962448,116.298012 202.458267,116.207001 
	C203.612732,116.194633 204.788635,118.183311 205.892929,119.637512 
	C203.484818,119.385124 201.138397,118.740700 197.934021,118.084305 
	C190.391235,118.034317 183.706406,117.996292 177.021561,117.958267 
z"/>
<path fill="#7AA550" opacity="1.000000" stroke="none" 
	d="
M172.845840,237.940475 
	C172.673706,249.034775 172.501556,260.129089 172.121948,271.569885 
	C171.939575,261.288940 171.964676,250.661545 172.104370,239.360397 
	C172.404449,238.418213 172.613419,238.169495 172.845840,237.940475 
z"/>
<path fill="#77A359" opacity="1.000000" stroke="none" 
	d="
M192.979309,167.843018 
	C192.979111,167.477249 192.978928,167.111481 192.979080,166.471375 
	C198.708450,166.460388 204.437469,166.723740 210.583130,167.075378 
	C210.999756,167.163696 210.970337,167.549988 210.494019,167.750061 
	C204.338226,167.914413 198.658768,167.878708 192.979309,167.843018 
z"/>
<path fill="#83A957" opacity="1.000000" stroke="none" 
	d="
M195.908691,269.535278 
	C195.874146,269.985626 195.519485,269.993286 195.342133,269.995544 
	C195.164764,267.545837 195.164764,265.093933 195.164764,262.036163 
	C191.425674,262.036163 188.175980,262.036163 184.466537,262.087708 
	C186.451660,257.726379 190.385056,260.610352 193.583176,260.500244 
	C194.340134,260.474182 195.425568,263.413116 195.939163,265.115082 
	C196.305267,266.328278 195.967117,267.754028 195.908691,269.535278 
z"/>
<path fill="#66A337" opacity="1.000000" stroke="none" 
	d="
M215.980453,142.995010 
	C216.648834,134.925156 217.317230,126.855293 217.980042,118.329361 
	C217.974457,117.873299 218.044754,117.391541 218.305542,117.154633 
	C218.566315,116.917732 218.940155,116.890182 218.940155,116.890182 
	C218.943970,120.618645 218.947784,124.347115 218.811539,128.908844 
	C217.774460,134.159744 216.877457,138.577377 215.980453,142.995010 
z"/>
<path fill="#7AA550" opacity="1.000000" stroke="none" 
	d="
M153.061508,276.033661 
	C156.192230,274.168335 159.322952,272.302979 162.736176,270.277344 
	C162.073486,274.917969 158.360626,277.682617 152.328934,277.960541 
	C150.195862,278.058807 148.053406,277.953308 145.809082,277.725403 
	C148.155792,277.017822 150.608643,276.525726 153.061508,276.033661 
z"/>
<path fill="#83A957" opacity="1.000000" stroke="none" 
	d="
M283.839478,235.670029 
	C283.614655,236.049515 283.157562,236.058884 281.888336,236.046402 
	C274.725739,236.024612 268.375275,236.024643 262.024780,236.024689 
	C262.024780,236.024689 261.713318,235.655457 261.562012,235.467133 
	C264.255981,234.904312 267.107727,234.181625 269.944946,234.234772 
	C274.504059,234.320145 279.053589,234.918365 283.839478,235.670029 
z"/>
<path fill="#0F6D8D" opacity="1.000000" stroke="none" 
	d="
M164.630814,67.001617 
	C171.995285,67.186317 179.135147,67.403099 186.633026,67.824791 
	C179.133240,68.246727 171.275467,68.463745 163.145676,68.416748 
	C162.873657,68.152725 163.062775,67.903450 163.225021,67.796364 
	C163.596558,67.533211 163.792526,67.361893 163.975159,67.175331 
	C163.975159,67.175331 164.406219,67.033684 164.630814,67.001617 
z"/>
<path fill="#2F708D" opacity="1.000000" stroke="none" 
	d="
M98.174271,236.308838 
	C97.712265,235.515427 97.466011,235.056595 97.088181,234.371094 
	C102.725334,235.760208 99.677399,240.360611 99.745010,243.533401 
	C99.814339,246.786789 97.179710,245.831345 94.975525,245.210938 
	C93.436172,244.777649 91.691628,245.073395 89.618752,245.047806 
	C90.367439,244.718018 91.524429,244.147644 92.706726,244.089203 
	C99.188873,243.768723 99.653999,243.208633 98.174271,236.308838 
z"/>
<path fill="#0F6D8D" opacity="1.000000" stroke="none" 
	d="
M254.262207,154.934753 
	C253.487106,156.189926 252.939301,157.325912 252.209808,158.722855 
	C252.344940,151.637314 252.661743,144.290787 252.999527,136.478973 
	C253.497330,141.723221 253.974121,147.432800 254.605957,153.510529 
	C254.670517,154.190979 254.580017,154.503281 254.262207,154.934753 
z"/>
<path fill="#7FA154" opacity="1.000000" stroke="none" 
	d="
M158.166565,247.413574 
	C161.616440,244.066055 159.746979,240.420120 159.000626,236.535629 
	C159.913986,237.210495 161.638916,238.151245 161.840378,239.348358 
	C162.290543,242.023117 161.981110,244.825714 161.981110,247.755051 
	C160.571533,247.755051 159.478531,247.755051 158.166565,247.413574 
z"/>
<path fill="#6DA639" opacity="1.000000" stroke="none" 
	d="
M152.604309,276.023834 
	C150.608643,276.525726 148.155792,277.017822 145.359802,277.668030 
	C142.441498,277.112152 139.866364,276.398163 137.101898,275.372742 
	C141.990768,275.378845 147.068939,275.696442 152.604309,276.023834 
z"/>
<path fill="#7FA154" opacity="1.000000" stroke="none" 
	d="
M148.373932,235.935074 
	C146.564972,235.958267 145.124039,235.977127 143.249084,235.990952 
	C147.658371,232.879639 152.669113,233.605850 157.959900,235.668533 
	C157.696854,236.006912 157.197540,236.011322 155.910995,236.000076 
	C153.732697,235.970627 152.341614,235.956848 150.950546,235.943054 
	C150.214355,235.938950 149.478149,235.934845 148.373932,235.935074 
z"/>
<path fill="#7FA154" opacity="1.000000" stroke="none" 
	d="
M140.909668,153.621674 
	C140.404358,153.782700 139.969467,153.499817 139.305450,153.099518 
	C139.076309,152.982132 139.038498,152.506302 139.111099,152.147110 
	C139.291992,151.490051 139.234299,151.221741 139.010605,150.982971 
	C139.010605,150.982971 139.013351,150.500275 139.100510,150.144958 
	C139.311172,149.504730 139.262741,149.248077 139.042389,149.019684 
	C139.042389,149.019684 139.040634,148.976273 139.040588,148.569427 
	C138.721359,146.391922 138.402145,144.621277 138.082947,142.850616 
	C138.090851,141.849884 138.098755,140.849167 138.286942,139.475586 
	C138.467224,139.102722 138.841949,139.118317 138.841949,139.118317 
	C139.554672,143.804794 140.267380,148.491257 140.909668,153.621674 
z"/>
<path fill="#96B85C" opacity="1.000000" stroke="none" 
	d="
M183.670959,235.596436 
	C183.775146,235.971924 183.404922,235.950836 183.219727,235.950363 
	C179.923843,235.914124 176.813171,235.878372 173.235107,235.813492 
	C176.201065,232.408340 179.884857,233.832687 183.670959,235.596436 
z"/>
<path fill="#1A7691" opacity="1.000000" stroke="none" 
	d="
M82.809967,268.076569 
	C79.074623,266.699310 78.859222,264.579163 81.762260,261.949951 
	C82.342514,263.421112 82.657799,264.799133 82.958275,266.832336 
	C82.898964,267.683868 82.854469,267.880219 82.809967,268.076569 
z"/>
<path fill="#0F6D8D" opacity="1.000000" stroke="none" 
	d="
M99.834602,275.596436 
	C99.274719,275.755951 98.783745,275.503021 98.085892,275.059326 
	C97.861252,272.985504 97.843475,271.102478 97.845230,268.815674 
	C98.544342,270.669250 99.223923,272.926636 99.834602,275.596436 
z"/>
<path fill="#78AC37" opacity="1.000000" stroke="none" 
	d="
M196.309998,249.787598 
	C195.872772,249.480911 195.696167,248.953613 195.372177,248.187592 
	C195.166214,246.884888 195.107620,245.820908 195.118317,244.358856 
	C195.187607,243.960754 195.604950,243.950928 195.813751,243.941406 
	C198.645218,245.572952 198.266968,247.505875 196.309998,249.787598 
z"/>
<path fill="#0F6D8D" opacity="1.000000" stroke="none" 
	d="
M83.176819,268.291809 
	C82.854469,267.880219 82.898964,267.683868 83.003998,267.191772 
	C87.074783,267.288239 91.085037,267.680450 95.546310,268.129150 
	C91.846107,268.292786 87.694885,268.399933 83.176819,268.291809 
z"/>
<path fill="#8BC236" opacity="1.000000" stroke="none" 
	d="
M138.891220,138.675003 
	C138.841949,139.118317 138.467224,139.102722 138.280670,139.100311 
	C137.829834,138.859482 137.565552,138.621048 137.128967,137.855072 
	C136.956253,136.888428 136.955872,136.449341 136.966492,135.610336 
	C136.985657,134.144455 136.993820,133.078476 137.308655,131.985870 
	C138.019424,131.893051 138.423492,131.826889 138.827576,131.760712 
	C138.827576,131.760712 138.965546,131.911331 139.022568,131.996033 
	C139.033218,134.131058 138.986862,136.181366 138.891220,138.675003 
z"/>
<path fill="#7FA154" opacity="1.000000" stroke="none" 
	d="
M141.405121,163.814301 
	C141.038971,161.254486 141.009399,158.455673 140.996185,155.234955 
	C141.255585,157.733810 141.498642,160.654541 141.405121,163.814301 
z"/>
<path fill="#2F708D" opacity="1.000000" stroke="none" 
	d="
M78.596970,234.101532 
	C77.537048,234.270172 76.062752,234.374252 74.295303,234.322342 
	C75.395630,234.123230 76.789108,234.080109 78.596970,234.101532 
z"/>
<path fill="#7FA154" opacity="1.000000" stroke="none" 
	d="
M147.465088,246.080811 
	C148.494385,245.902115 149.931519,245.675781 151.665619,245.601257 
	C150.599365,245.846436 149.236160,245.939804 147.465088,246.080811 
z"/>
<path fill="#96B85C" opacity="1.000000" stroke="none" 
	d="
M172.832642,237.571976 
	C172.613419,238.169495 172.404449,238.418213 172.097153,238.898743 
	C172.006088,237.989853 172.036804,236.868881 172.418701,235.739136 
	C172.786392,236.221390 172.802917,236.712433 172.832642,237.571976 
z"/>
<path fill="#7FA154" opacity="1.000000" stroke="none" 
	d="
M153.401520,245.856506 
	C154.184494,245.731781 155.360626,245.693924 156.776077,245.859650 
	C155.941818,246.023285 154.868271,245.983322 153.401520,245.856506 
z"/>
<path fill="#0F6D8D" opacity="1.000000" stroke="none" 
	d="
M160.783813,68.210251 
	C160.513016,68.645508 159.932434,68.988640 159.173721,69.180496 
	C159.488403,68.725517 159.981216,68.421822 160.783813,68.210251 
z"/>
<path fill="#7AA550" opacity="1.000000" stroke="none" 
	d="
M222.091644,275.352966 
	C222.773773,275.246094 223.626465,275.445892 224.745819,275.844543 
	C224.095703,275.915497 223.178955,275.787598 222.091644,275.352966 
z"/>
<path fill="#7AA550" opacity="1.000000" stroke="none" 
	d="
M216.732803,243.057800 
	C216.847580,243.445984 216.683777,243.989929 216.364532,244.774765 
	C216.290802,244.414963 216.372513,243.814255 216.732803,243.057800 
z"/>
<path fill="#83A957" opacity="1.000000" stroke="none" 
	d="
M286.920349,236.699966 
	C286.527039,236.818344 285.984680,236.656464 285.197144,236.347183 
	C285.558441,236.273087 286.164886,236.346405 286.920349,236.699966 
z"/>
<path fill="#7AA550" opacity="1.000000" stroke="none" 
	d="
M221.003647,274.267426 
	C221.185837,274.224396 221.444534,274.446869 221.850159,274.880341 
	C221.691437,274.905212 221.385803,274.719055 221.003647,274.267426 
z"/>
<path fill="#7AA550" opacity="1.000000" stroke="none" 
	d="
M219.982025,273.253479 
	C220.140503,273.221436 220.411469,273.439453 220.842529,273.864563 
	C220.699921,273.882263 220.397217,273.692902 219.982025,273.253479 
z"/>
<path fill="#0F6D8D" opacity="1.000000" stroke="none" 
	d="
M162.779541,68.277679 
	C162.685410,68.402634 162.360794,68.264107 162.222153,68.154907 
	C162.049713,67.668625 162.199341,67.390083 162.787979,67.379715 
	C163.043564,67.549332 163.062775,67.903450 163.062775,67.903450 
	C163.062775,67.903450 162.873657,68.152725 162.779541,68.277679 
z"/>
<path fill="#0F6D8D" opacity="1.000000" stroke="none" 
	d="
M96.791389,267.893066 
	C96.786301,268.102325 96.473183,268.183899 96.318527,268.137329 
	C96.374748,267.955139 96.585609,267.819458 96.791389,267.893066 
z"/>
<path fill="#6F9951" opacity="1.000000" stroke="none" 
	d="
M218.926880,116.670319 
	C218.940155,116.890182 218.566315,116.917732 218.378967,116.922546 
	C218.074539,116.603355 218.159714,116.346588 218.651169,116.085449 
	C218.855194,116.013817 218.913605,116.450455 218.926880,116.670319 
z"/>
<path fill="#1A7691" opacity="1.000000" stroke="none" 
	d="
M163.225021,67.796364 
	C163.062775,67.903450 163.043564,67.549332 163.037476,67.372116 
	C163.031403,67.194901 163.501373,67.100601 163.738266,67.137970 
	C163.792526,67.361893 163.596558,67.533211 163.225021,67.796364 
z"/>
<path fill="#157392" opacity="1.000000" stroke="none" 
	d="
M122.053604,198.264954 
	C122.301682,198.132339 122.556656,198.325180 122.875549,198.800690 
	C122.700104,198.848129 122.407120,198.683792 122.053604,198.264954 
z"/>
<path fill="#66A337" opacity="1.000000" stroke="none" 
	d="
M224.774048,98.197876 
	C225.025131,98.210472 224.999527,98.609818 224.976715,98.808807 
	C224.953888,99.007805 224.492004,99.032799 224.261322,99.019516 
	C224.194733,98.732574 224.358841,98.458923 224.774048,98.197876 
z"/>
<path fill="#7FA154" opacity="1.000000" stroke="none" 
	d="
M157.015656,246.261963 
	C157.197342,246.216522 157.460617,246.430115 157.859955,246.860352 
	C157.696426,246.891663 157.396835,246.706329 157.015656,246.261963 
z"/>
<path fill="#7AA550" opacity="1.000000" stroke="none" 
	d="
M215.732239,246.026001 
	C215.860016,246.229752 215.692795,246.482971 215.334366,246.880585 
	C215.275742,246.731277 215.373764,246.414780 215.732239,246.026001 
z"/>
<path fill="#0F6D8D" opacity="1.000000" stroke="none" 
	d="
M102.036163,156.641434 
	C101.871094,155.893158 101.724823,154.747269 101.736588,153.343903 
	C101.948067,154.138885 102.001511,155.191360 102.036163,156.641434 
z"/>
<path fill="#0D7193" opacity="1.000000" stroke="none" 
	d="
M118.775360,114.108109 
	C118.778023,114.219238 118.571884,114.453751 118.175835,114.831070 
	C118.153458,114.707649 118.347008,114.460190 118.775360,114.108109 
z"/>
<path fill="#0D7193" opacity="1.000000" stroke="none" 
	d="
M119.712387,112.871964 
	C119.716286,112.986549 119.525215,113.286499 119.150017,113.777725 
	C119.149734,113.665108 119.333588,113.361214 119.712387,112.871964 
z"/>
<path fill="#0D7193" opacity="1.000000" stroke="none" 
	d="
M120.752197,111.111069 
	C120.746590,111.225250 120.523712,111.479813 120.117096,111.912781 
	C120.133881,111.811272 120.334404,111.531357 120.752197,111.111069 
z"/>
<path fill="#000000" opacity="1.000000" stroke="none" 
	d="
M230.118683,245.066986 
	C232.490372,245.279419 234.862076,245.491837 237.656342,246.120544 
	C238.387177,246.720734 238.695419,246.904663 239.003647,247.088593 
	C239.003647,247.088593 239.001358,246.997116 239.046600,247.257690 
	C239.394775,247.705963 239.697739,247.893646 240.000702,248.081314 
	C240.000702,248.081314 239.991287,248.008331 239.989731,248.437103 
	C240.383881,252.917770 240.779602,256.969666 241.175308,261.021545 
	C241.175308,261.021545 241.047699,261.440796 240.744110,261.815338 
	C240.266663,262.795990 240.092819,263.402130 239.918976,264.008270 
	C239.918991,264.008270 239.995697,264.005066 239.737244,264.049835 
	C239.289627,264.390015 239.100433,264.685455 238.911240,264.980865 
	C238.911240,264.980865 238.984634,264.985504 238.727722,265.038635 
	C238.281189,265.393188 238.091568,265.694641 237.901947,265.996094 
	C237.901932,265.996094 237.988297,265.987579 237.722900,265.992889 
	C237.288116,266.048157 237.118744,266.098145 236.949371,266.148102 
	C236.548859,266.112305 236.148331,266.076477 235.121704,266.039795 
	C232.593628,265.757233 230.691666,265.475464 228.789688,265.193695 
	C228.789688,265.193695 228.554993,265.380981 228.616455,265.430603 
	C228.677917,265.480225 228.600311,265.446136 228.600311,265.446136 
	C228.479202,265.280548 228.358078,265.114990 227.975677,264.767151 
	C227.714386,264.584839 227.703140,264.535675 227.703140,264.535675 
	C227.484070,264.214355 227.264999,263.893066 226.982605,262.892517 
	C225.143616,255.967545 225.707123,250.158249 230.118683,245.066986 
z"/>
<path fill="#6DA639" opacity="1.000000" stroke="none" 
	d="
M229.745926,245.090637 
	C225.707123,250.158249 225.143616,255.967545 226.851532,262.630981 
	C222.055695,260.091003 223.866989,255.491898 224.595581,251.721115 
	C225.063110,249.301453 227.705612,247.302063 229.745926,245.090637 
z"/>
<path fill="#7AA550" opacity="1.000000" stroke="none" 
	d="
M241.346558,260.650330 
	C240.779602,256.969666 240.383881,252.917770 239.953247,248.441925 
	C243.835571,251.663559 241.649399,256.105377 241.346558,260.650330 
z"/>
<path fill="#7AA550" opacity="1.000000" stroke="none" 
	d="
M228.974121,265.537170 
	C230.691666,265.475464 232.593628,265.757233 234.824738,266.100647 
	C233.026398,268.814758 231.050827,268.233856 228.974121,265.537170 
z"/>
<path fill="#7AA550" opacity="1.000000" stroke="none" 
	d="
M240.119965,263.779602 
	C240.092819,263.402130 240.266663,262.795990 240.720169,262.033142 
	C240.773529,262.434601 240.547241,262.992767 240.119965,263.779602 
z"/>
<path fill="#7AA550" opacity="1.000000" stroke="none" 
	d="
M238.101685,265.834717 
	C238.091568,265.694641 238.281189,265.393188 238.729889,265.001892 
	C238.759781,265.165833 238.530594,265.419586 238.101685,265.834717 
z"/>
<path fill="#7AA550" opacity="1.000000" stroke="none" 
	d="
M237.087708,266.204834 
	C237.118744,266.098145 237.288116,266.048157 237.718506,265.949707 
	C237.798233,266.176300 237.547073,266.296387 237.087708,266.204834 
z"/>
<path fill="#6DA639" opacity="1.000000" stroke="none" 
	d="
M228.460785,265.411743 
	C228.600311,265.446136 228.677917,265.480225 228.709991,265.548035 
	C228.742081,265.615814 228.346390,265.544495 228.346390,265.544495 
	C228.346390,265.544495 228.321259,265.377380 228.460785,265.411743 
z"/>
<path fill="#7AA550" opacity="1.000000" stroke="none" 
	d="
M239.845520,247.875458 
	C239.697739,247.893646 239.394775,247.705963 239.000854,247.258804 
	C239.170029,247.222748 239.430191,247.446167 239.845520,247.875458 
z"/>
<path fill="#6DA639" opacity="1.000000" stroke="none" 
	d="
M227.651749,264.666565 
	C227.703140,264.535675 227.714386,264.584839 227.722778,264.591858 
	C227.731155,264.598907 227.564819,264.930115 227.564819,264.930115 
	C227.564819,264.930115 227.600357,264.797485 227.651749,264.666565 
z"/>
<path fill="#7AA550" opacity="1.000000" stroke="none" 
	d="
M239.115936,264.831787 
	C239.100433,264.685455 239.289627,264.390015 239.735718,264.011475 
	C239.768631,264.179810 239.544632,264.431274 239.115936,264.831787 
z"/>
<path fill="#7AA550" opacity="1.000000" stroke="none" 
	d="
M238.841461,246.885040 
	C238.695419,246.904663 238.387177,246.720734 237.978607,246.279099 
	C238.145264,246.241409 238.412262,246.461441 238.841461,246.885040 
z"/>
<path fill="#78AC37" opacity="1.000000" stroke="none" 
	d="
M196.335236,240.883286 
	C196.499649,239.679398 196.959427,238.307770 197.687500,236.963242 
	C197.514084,238.232071 197.072357,239.473816 196.335236,240.883286 
z"/>
<path fill="#6DA639" opacity="1.000000" stroke="none" 
	d="
M151.233490,236.138428 
	C152.341614,235.956848 153.732697,235.970627 155.537170,235.996918 
	C154.472534,236.117523 152.994492,236.225647 151.233490,236.138428 
z"/>
<path fill="#83A957" opacity="1.000000" stroke="none" 
	d="
M273.056763,256.003754 
	C272.721863,252.310287 272.386963,248.616806 272.464020,244.495880 
	C275.590942,244.785187 278.305908,245.501968 280.577576,246.127289 
	C278.220490,246.035797 276.306702,246.035797 274.263031,246.035797 
	C274.263031,249.316772 274.263031,252.039490 274.263031,255.793564 
	C277.226074,254.697281 279.581238,253.825928 281.938538,253.290054 
	C281.944519,254.072723 281.948273,254.519882 281.952057,254.967056 
	C281.952057,254.967056 281.984070,255.006760 281.587646,255.076904 
	C278.479706,255.432617 275.768250,255.718185 273.056763,256.003754 
z"/>
<path fill="#6DA639" opacity="1.000000" stroke="none" 
	d="
M262.013885,236.490860 
	C268.375275,236.024643 274.725739,236.024612 281.545959,236.042694 
	C277.926208,236.376068 273.841553,236.837143 269.746155,236.972549 
	C263.506866,237.178848 263.129150,237.517715 262.993652,243.912506 
	C262.878113,249.363968 262.633942,254.812698 262.247742,260.619568 
	C262.033569,252.969986 262.018280,244.963516 262.013885,236.490860 
z"/>
<path fill="#78AC37" opacity="1.000000" stroke="none" 
	d="
M281.020874,246.218750 
	C278.305908,245.501968 275.590942,244.785187 272.457520,244.077026 
	C275.798523,244.378082 279.804810,244.024399 283.183044,245.314896 
	C284.358856,245.764084 284.087646,250.272461 284.228149,252.940079 
	C284.257507,253.496994 283.188293,254.111786 282.288696,254.833481 
	C281.948273,254.519882 281.944519,254.072723 281.960754,252.945038 
	C281.660797,250.249252 281.340851,248.234009 281.020874,246.218750 
z"/>
<path fill="#78AC37" opacity="1.000000" stroke="none" 
	d="
M273.384094,256.205933 
	C275.768250,255.718185 278.479706,255.432617 281.580566,255.053375 
	C279.217072,255.442505 276.464264,255.925323 273.384094,256.205933 
z"/>
<path fill="#6EBE40" opacity="1.000000" stroke="none" 
	d="
M215.978180,143.318573 
	C216.877457,138.577377 217.774460,134.159744 218.812546,129.371307 
	C220.002762,130.306091 221.051910,131.611664 222.265823,133.122299 
	C223.847641,132.190964 225.580872,131.170471 227.649261,130.065887 
	C227.992142,132.105499 227.999863,134.229202 227.821045,137.029388 
	C227.747864,139.509384 227.861206,141.312897 227.974548,143.116409 
	C227.964523,143.475098 227.954483,143.833801 227.650726,144.711487 
	C226.906479,148.187393 226.455948,151.144333 226.005432,154.101257 
	C226.005432,154.101257 226.003296,154.496750 226.010223,154.692886 
	C225.668945,155.696884 225.320740,156.504745 224.907471,157.637894 
	C223.261292,157.585815 221.680176,157.208435 220.296921,156.878281 
	C218.975021,158.270233 217.777069,159.531677 216.245667,160.880936 
	C215.936432,155.935059 215.960663,150.901367 215.971710,145.400757 
	C215.964325,144.503281 215.970123,144.072723 215.978180,143.318573 
z"/>
<path fill="#6EBE40" opacity="1.000000" stroke="none" 
	d="
M253.815903,101.261368 
	C257.955383,106.604767 256.327118,108.929123 247.363556,109.891838 
	C246.406616,104.883583 251.074173,104.057831 253.815903,101.261368 
z"/>
<path fill="#66A337" opacity="1.000000" stroke="none" 
	d="
M225.391724,99.242134 
	C234.456696,99.241196 243.875046,99.445770 253.642426,99.879967 
	C244.575989,99.888947 235.160538,99.668289 225.391724,99.242134 
z"/>
<path fill="#6EBE40" opacity="1.000000" stroke="none" 
	d="
M228.728821,122.112701 
	C228.860809,124.236763 228.667511,126.447571 228.232956,128.829132 
	C227.876648,126.717789 224.115005,124.214882 228.728821,122.112701 
z"/>
<path fill="#86C338" opacity="1.000000" stroke="none" 
	d="
M152.985992,152.396271 
	C153.204941,144.004471 153.204941,144.000656 161.250015,144.006531 
	C168.848480,144.012070 176.446945,144.026779 184.511139,144.048798 
	C182.800140,145.039719 180.694550,146.259201 178.426727,146.931503 
	C176.154755,147.605057 173.720825,147.732300 170.634506,148.211258 
	C172.658737,150.628769 173.767639,151.953110 174.470398,153.629639 
	C169.358215,154.311996 164.652206,154.642166 159.946198,154.972336 
	C159.525818,154.974960 159.105453,154.977585 158.247406,154.911728 
	C157.530273,154.741226 157.266006,154.776917 157.016968,154.950317 
	C155.713135,154.206711 154.409317,153.463120 152.985992,152.396271 
z"/>
<path fill="#86C338" opacity="1.000000" stroke="none" 
	d="
M192.089508,129.708206 
	C191.966888,130.059952 191.473694,130.027603 190.866425,129.816696 
	C183.828613,129.395691 177.398071,129.185593 171.069565,128.647919 
	C172.696976,126.921692 174.457321,125.699211 175.677490,124.071739 
	C176.762253,122.624878 177.248215,120.729050 178.466888,119.021576 
	C185.289597,119.018471 191.643875,119.025185 197.998169,119.031891 
	C198.493500,121.371658 198.988831,123.711426 199.458084,125.928032 
	C197.198929,126.996948 194.705536,128.176712 192.089508,129.708206 
z"/>
<path fill="#6DA639" opacity="1.000000" stroke="none" 
	d="
M160.419037,154.979797 
	C164.652206,154.642166 169.358215,154.311996 174.528168,153.971313 
	C182.725937,153.974808 190.459732,153.988785 198.578064,154.018250 
	C191.946152,154.383743 184.929703,154.733795 177.442017,155.106277 
	C171.611145,155.081543 166.251495,155.034393 160.419037,154.979797 
z"/>
<path fill="#78AC37" opacity="1.000000" stroke="none" 
	d="
M198.003448,118.806290 
	C191.643875,119.025185 185.289597,119.018471 178.016724,119.011169 
	C174.392410,119.005432 171.686661,119.000275 168.986359,118.766052 
	C168.991806,118.536995 169.008347,118.079041 169.008347,118.079041 
	C171.381699,118.047554 173.755035,118.016075 176.574982,117.971428 
	C183.706406,117.996292 190.391235,118.034317 197.545898,118.100883 
	C198.015732,118.129433 198.008713,118.580688 198.003448,118.806290 
z"/>
<path fill="#6EBE40" opacity="1.000000" stroke="none" 
	d="
M193.348785,179.975616 
	C188.675217,179.628036 184.289001,179.289627 179.528442,178.571747 
	C179.096405,175.151962 179.038696,172.111649 179.450684,169.058578 
	C188.604752,169.057755 197.289154,169.069687 205.973541,169.081619 
	C203.673203,172.133011 201.372864,175.184402 199.036514,178.590515 
	C197.804214,179.169205 196.607925,179.393158 195.095551,179.817291 
	C194.398376,180.006577 194.017258,179.995682 193.348785,179.975616 
z"/>
<path fill="#66A337" opacity="1.000000" stroke="none" 
	d="
M206.347092,169.064621 
	C197.289154,169.069687 188.604752,169.057755 179.002899,169.043884 
	C175.390884,169.025406 172.696335,169.008865 170.003128,168.746384 
	C170.004486,168.500458 170.017853,168.008774 170.017853,168.008774 
	C177.360962,167.973831 184.704056,167.938889 192.513245,167.873474 
	C198.658768,167.878708 204.338226,167.914413 210.479462,167.943207 
	C209.534378,168.306747 208.127502,168.677185 206.347092,169.064621 
z"/>
<path fill="#9FC834" opacity="1.000000" stroke="none" 
	d="
M136.955490,136.010254 
	C136.955872,136.449341 136.956253,136.888428 136.951950,137.656662 
	C133.498062,137.918518 130.048859,137.851227 126.298492,137.901978 
	C125.668541,133.953049 125.339745,129.886047 124.862206,125.247086 
	C124.527145,124.428810 124.317970,124.203735 124.085930,123.999916 
	C124.075050,123.564247 124.064171,123.128586 124.270485,122.071533 
	C126.333115,120.632141 128.157104,119.171036 130.027725,119.108696 
	C137.673599,118.853882 145.333710,119.026321 152.978348,119.429535 
	C151.762405,121.567787 150.529175,123.299767 149.360321,125.074158 
	C148.524536,126.342941 147.775055,127.668579 146.563843,128.972183 
	C143.781296,129.353500 141.421982,129.731476 139.062653,130.109451 
	C139.021011,130.478928 138.979370,130.848404 138.882660,131.489304 
	C138.423492,131.826889 138.019424,131.893051 137.028046,132.118546 
	C136.612320,133.521988 136.783905,134.766129 136.955490,136.010254 
z"/>
<path fill="#8BC236" opacity="1.000000" stroke="none" 
	d="
M138.061279,143.258667 
	C138.402145,144.621277 138.721359,146.391922 139.022949,148.556732 
	C138.683426,147.189499 138.361511,145.428116 138.061279,143.258667 
z"/>
<path fill="#8BC236" opacity="1.000000" stroke="none" 
	d="
M139.032776,149.269089 
	C139.262741,149.248077 139.311172,149.504730 139.101654,149.903625 
	C139.015640,150.017593 139.023148,149.518494 139.032776,149.269089 
z"/>
<path fill="#8BC236" opacity="1.000000" stroke="none" 
	d="
M139.009033,151.244629 
	C139.234299,151.221741 139.291992,151.490051 139.098633,151.908768 
	C139.011520,151.855179 139.009476,151.680740 139.009033,151.244629 
z"/>
<path fill="#4C9B3E" opacity="1.000000" stroke="none" 
	d="
M226.193146,153.760986 
	C226.455948,151.144333 226.906479,148.187393 227.660172,144.980484 
	C227.435852,147.627243 226.908371,150.523972 226.193146,153.760986 
z"/>
<path fill="#4C9B3E" opacity="1.000000" stroke="none" 
	d="
M227.980713,142.681885 
	C227.861206,141.312897 227.747864,139.509384 227.821335,137.416473 
	C228.001053,138.833817 227.993958,140.540588 227.980713,142.681885 
z"/>
<path fill="#86C338" opacity="1.000000" stroke="none" 
	d="
M150.000595,178.905701 
	C145.641876,178.925735 141.283157,178.945786 136.459503,178.944016 
	C134.387909,173.579239 139.520370,172.537567 142.403259,169.364563 
	C149.278961,169.027512 155.620010,169.044724 161.865326,169.383362 
	C160.825409,170.553040 159.932816,171.468811 158.927338,172.236816 
	C155.975815,174.491272 152.979416,176.686981 150.000595,178.905701 
z"/>
<path fill="#78AC37" opacity="1.000000" stroke="none" 
	d="
M161.961075,169.061951 
	C155.620010,169.044724 149.278961,169.027512 142.469727,169.009674 
	C141.821075,168.726730 141.807770,168.441559 142.064911,168.034882 
	C151.137680,167.940765 160.107162,167.965286 169.547256,167.999283 
	C170.017853,168.008774 170.004486,168.500458 169.557953,168.752579 
	C166.727966,169.023788 164.344528,169.042877 161.961075,169.061951 
z"/>
<path fill="#8BC236" opacity="1.000000" stroke="none" 
	d="
M139.525024,130.083130 
	C141.421982,129.731476 143.781296,129.353500 147.033844,128.980682 
	C155.607208,128.982407 163.287354,128.978943 170.967514,128.975494 
	C177.398071,129.185593 183.828613,129.395691 190.619781,129.801453 
	C173.982727,130.017014 156.985077,130.036911 139.525024,130.083130 
z"/>
<path fill="#63BC42" opacity="1.000000" stroke="none" 
	d="
M189.860138,193.979675 
	C190.450241,191.243454 190.644135,188.208527 192.261612,186.688171 
	C193.118988,185.882294 197.360367,187.061340 198.401291,188.529968 
	C199.399536,189.938385 199.024902,193.473450 197.858063,195.023132 
	C195.417114,198.264984 192.437408,197.197037 189.860138,193.979675 
z"/>
<path fill="#6EBE40" opacity="1.000000" stroke="none" 
	d="
M162.116486,196.334015 
	C158.003815,197.625397 155.073685,196.121033 154.743301,192.499237 
	C154.566559,190.561493 156.545944,187.516937 158.389511,186.519730 
	C161.110794,185.047791 164.466812,186.417282 164.984421,189.630707 
	C165.306107,191.627823 163.379776,193.987045 162.116486,196.334015 
z"/>
<path fill="#6DA639" opacity="1.000000" stroke="none" 
	d="
M157.276169,154.965363 
	C157.266006,154.776917 157.530273,154.741226 157.932159,154.916473 
	C157.881500,154.986603 157.708435,154.983521 157.276169,154.965363 
z"/>
<path fill="#8BC236" opacity="1.000000" stroke="none" 
	d="
M152.988586,119.041412 
	C145.333710,119.026321 137.673599,118.853882 130.027725,119.108696 
	C128.157104,119.171036 126.333115,120.632141 124.263687,121.744751 
	C124.499825,120.767937 124.959953,119.496513 125.731049,118.051361 
	C140.051590,117.928581 154.061157,117.979523 168.539551,118.054749 
	C169.008347,118.079041 168.991806,118.536995 168.521667,118.769592 
	C163.030563,119.015259 158.009567,119.028336 152.988586,119.041412 
z"/>
<path fill="#79C23C" opacity="1.000000" stroke="none" 
	d="
M161.865326,169.383362 
	C164.344528,169.042877 166.727966,169.023788 169.556595,168.998505 
	C172.696335,169.008865 175.390884,169.025406 178.533234,169.056641 
	C179.038696,172.111649 179.096405,175.151962 179.064392,178.555496 
	C169.628342,178.931717 160.281998,178.944717 150.468109,178.931717 
	C152.979416,176.686981 155.975815,174.491272 158.927338,172.236816 
	C159.932816,171.468811 160.825409,170.553040 161.865326,169.383362 
z"/>
<path fill="#1891BC" opacity="1.000000" stroke="none" 
	d="
M107.816635,259.850922 
	C107.746521,258.708984 107.676414,257.567047 108.186600,256.073730 
	C112.713661,255.507706 116.669403,255.057175 120.602341,255.206619 
	C121.974030,255.258743 123.289452,256.791748 124.630569,257.648438 
	C123.219193,258.410980 121.844582,259.734375 120.389481,259.829742 
	C116.215996,260.103271 112.009903,259.879303 107.816635,259.850922 
z"/>
<path fill="#0F6D8D" opacity="1.000000" stroke="none" 
	d="
M108.176620,260.094757 
	C112.009903,259.879303 116.215996,260.103271 120.389481,259.829742 
	C121.844582,259.734375 123.219193,258.410980 124.630569,257.648438 
	C123.289452,256.791748 121.974030,255.258743 120.602341,255.206619 
	C116.669403,255.057175 112.713661,255.507706 108.363998,255.826492 
	C110.255692,254.131653 122.301765,252.878220 124.382706,254.564362 
	C125.308067,255.314163 125.999397,257.206512 125.732254,258.326263 
	C125.481728,259.376373 123.838425,260.812561 122.787338,260.829956 
	C118.041100,260.908447 113.287529,260.543671 108.176620,260.094757 
z"/>
<path fill="#8BC236" opacity="1.000000" stroke="none" 
	d="
M124.212357,124.193222 
	C124.317970,124.203735 124.527145,124.428810 124.843742,124.866905 
	C124.736931,124.858582 124.525185,124.634537 124.212357,124.193222 
z"/>
<path fill="#94C637" opacity="1.000000" stroke="none" 
	d="
M136.966492,135.610336 
	C136.783905,134.766129 136.612320,133.521988 136.721359,132.145187 
	C136.993820,133.078476 136.985657,134.144455 136.966492,135.610336 
z"/>
<path fill="#000000" opacity="1.000000" stroke="none" 
	d="
M280.577576,246.127274 
	C281.340851,248.234009 281.660797,250.249252 281.958557,252.609528 
	C279.581238,253.825928 277.226074,254.697281 274.263031,255.793564 
	C274.263031,252.039490 274.263031,249.316772 274.263031,246.035797 
	C276.306702,246.035797 278.220490,246.035797 280.577576,246.127274 
z"/>
<path fill="#94C637" opacity="1.000000" stroke="none" 
	d="
M152.978348,119.429535 
	C158.009567,119.028336 163.030563,119.015259 168.516235,118.998650 
	C171.686661,119.000275 174.392410,119.005432 177.548309,119.020988 
	C177.248215,120.729050 176.762253,122.624878 175.677490,124.071739 
	C174.457321,125.699211 172.696976,126.921692 171.069565,128.647919 
	C163.287354,128.978943 155.607208,128.982407 147.457062,128.977356 
	C147.775055,127.668579 148.524536,126.342941 149.360321,125.074158 
	C150.529175,123.299767 151.762405,121.567787 152.978348,119.429535 
z"/>
</svg>